<svg version="1.2" xmlns="http://www.w3.org/2000/svg" viewBox="0 0 357 608" width="357" height="608">
	<title>desktop-avatar</title>
	<style>
		.s0 { fill: #00ccff } 
		.s1 { opacity: .1;fill: #000000 } 
		.s2 { fill: #f7a9a0 } 
		.s3 { fill: #ffffff } 
		.s4 { fill: #a6a6a6 } 
		.s5 { fill: #263238 } 
		.s6 { fill: #37474f } 
		.s7 { fill: #ff9bbc } 
		.s8 { fill: #c7c7c7 } 
	</style>
	<g id="Character">
		<g id="&lt;Group&gt;">
			<g id="&lt;Group&gt;">
				<path id="&lt;Path&gt;" class="s0" d="m249.2 313.2h-120.6v-25h120.6z"/>
				<path id="&lt;Path&gt;" class="s0" d="m161 313l-3.4 31.9-41.7 262.8h-11.9l32.9-262.8 2.7-31.9z"/>
				<path id="&lt;Path&gt;" class="s0" d="m273.9 607.7h-12l-41.7-262.8-3.3-31.9h21.4l2.7 31.9z"/>
				<path id="&lt;Path&gt;" class="s0" d="m253.7 532.2h-133v-7.5h133z"/>
				<path id="&lt;Path&gt;" class="s1" d="m136.9 343.8h20.7l3.4-30.8h-21.4z"/>
				<path id="&lt;Path&gt;" class="s1" d="m241 343.8h-20.8l-3.3-30.8h21.4z"/>
			</g>
			<g id="&lt;Group&gt;">
				<g id="&lt;Group&gt;">
					<g id="&lt;Group&gt;">
						<g id="&lt;Group&gt;">
							<g id="&lt;Group&gt;">
								<path id="&lt;Path&gt;" class="s2" d="m1 330.8c1.4-4 72-97.4 76.8-99.2 0.6-0.2 32.2 22.3 32.2 22.3 1.3 1.7 61.3-11 61.3-11l0.6 72.4-109.4-2.3c0 0-14.7 8.7-28.2 15.8q-0.1 0-0.1 0c-8.3 4.4-15.7 8.1-17.8 8.6-5.4 1.4-16.7-2.7-15.4-6.6z"/>
								<path id="&lt;Path&gt;" class="s3" d="m16.4 337.4c2.1-0.5 9.5-4.2 17.8-8.6q0 0 0.1 0c13.5-7.1 28.2-15.8 28.2-15.8l24.4 0.5 38.1-61.4c-8.4 1.4-14.6 2.3-15 1.8 0 0-31.6-22.5-32.2-22.3-4.8 1.8-75.4 95.2-76.8 99.2-1.3 3.9 10 8 15.4 6.6z"/>
								<g id="&lt;Group&gt;">
									<path id="&lt;Path&gt;" class="s4" d="m0.4 330.9c1.4-4.1 72.3-97.4 77.3-99.2 1.9-0.7 17.3 8.8 32.3 22.2l-45.9 60.1c0 0-42.2 22.4-47.9 23.8-5.6 1.4-17.2-2.8-15.8-6.9z"/>
									<g id="&lt;Group&gt;">
										<g id="&lt;Group&gt;">
											<path id="&lt;Path&gt;" class="s5" d="m5.1 332.4c12.3-15.3 60.4-78.4 71.4-94.5 0.1-0.1 0-0.2-0.1-0.1-12.5 15-60.1 78.4-71.5 94.4-0.3 0.3 0 0.5 0.2 0.2z"/>
											<path id="&lt;Path&gt;" class="s5" d="m24.1 334.4c3-3.6 4-8.6 3.3-12.3-0.6-3.6-2.3-7.5-5.7-9.8-0.1-0.1-0.2 0.1-0.1 0.1 5.4 5.6 6.6 15.2 2.3 21.8-0.1 0.1 0.1 0.3 0.2 0.2z"/>
											<path id="&lt;Path&gt;" class="s5" d="m58.8 317.7c4.9-6.2 8.2-15.1 6-22.9 0-0.3-0.5-0.2-0.5 0-1.4 7.9-3.3 15-6.3 22.4-0.2 0.5 0.5 0.9 0.8 0.5z"/>
											<path id="&lt;Path&gt;" class="s5" d="m53.3 321.1c4.8-6.2 8.1-15.1 6-22.9-0.1-0.3-0.5-0.2-0.6 0-1.4 7.9-3.3 15-6.3 22.4-0.2 0.5 0.5 0.9 0.9 0.5z"/>
											<path id="&lt;Path&gt;" class="s5" d="m47.7 324.5c4.9-6.2 8.2-15.1 6-22.9-0.1-0.3-0.5-0.2-0.5 0-1.4 7.9-3.3 15-6.3 22.4-0.2 0.5 0.5 0.9 0.8 0.5z"/>
											<path id="&lt;Path&gt;" class="s5" d="m42.2 327.9c4.8-6.2 8.1-15.2 6-22.9-0.1-0.3-0.6-0.2-0.6 0-1.4 7.9-3.3 15-6.3 22.4-0.2 0.5 0.5 0.9 0.9 0.5z"/>
											<path id="&lt;Path&gt;" class="s5" d="m88.3 253.2c5.3-7.1-5.6-15.3-10.9-8.3-5.4 7 5.6 15.3 10.9 8.3z"/>
										</g>
										<path id="&lt;Compound Path&gt;" fill-rule="evenodd" class="s5" d="m61.6 329.7c-1.8-6.7-0.6-14-0.3-20.8 0-0.7 0.8-0.9 1.4-0.7 0-0.1 0.2-0.2 0.3-0.1 5.1 4.5 9.6 11.4 11.7 17.9 1.2 4 0.7 10-4.3 11.2-4.8 1.1-7.8-3.6-8.8-7.5zm5 4.2c7.2 4.6 6.7-5.6 5.7-8.5-0.7-1.9-1.6-3.7-2.5-5.5-1.9-3.7-4.3-7.1-6.6-10.6 0 3.4-0.2 6.7-0.3 10.1-0.1 3.9-0.4 12 3.7 14.5z"/>
										<path id="&lt;Compound Path&gt;" fill-rule="evenodd" class="s5" d="m83.9 289c3.7 3.6 1 8.9-2.1 11.7-5.1 4.6-12.5 8.1-19.2 9.3-0.2 0-0.3-0.1-0.3-0.2-0.6-0.1-1.1-0.7-0.8-1.4 3.3-6 6-12.8 11-17.6 2.9-2.8 7.9-5.3 11.4-1.8zm-15.6 11.4c-1.7 2.9-3.2 5.8-4.9 8.7 3.7-1.8 7.5-3.5 11.1-5.7 1.7-1 3.4-2.1 4.9-3.4 2.4-2 8.1-10.4-0.5-10.2-4.7 0-8.6 7.1-10.6 10.6z"/>
									</g>
								</g>
							</g>
							<g id="&lt;Group&gt;">
								<path id="&lt;Path&gt;" class="s6" d="m174.6 220.7h49.1c0 0 51.3-24.7 92.7-14.7 47.4 11.4 53.5 70.9 18 92-44.9 26.7-244.7 21.5-244.7 21.5l43.2-73.2c0 0 66.5-14 126.7-12l-85 11.6z"/>
								<g id="&lt;Group&gt;">
									<path id="&lt;Path&gt;" class="s5" d="m130 251c0.1-0.1 0.1-0.3 0.1-0.4q0.1-0.1 0.1-0.3 0.1-0.3 0.2-0.7 0.2-0.7 0.5-1.4 0.3-0.7 0.6-1.4c0.2-0.5 0.5-0.9 0.8-1.3 0 0 0.1 0 0.1-0.1q0.1 0 0.1 0 0.1-0.1 0.1-0.1 0.1 0 0.1 0c7.3-1.4 57-8.5 64.4-9.3 7.4-0.9 14.9-1.6 22.3-2.2 14.9-1.2 29.9-1.9 44.8-1.6q2.1 0 4.2 0.1c0.3-0.1 0.7-0.1 1-0.2q1-0.3 2.1-0.5c1.4-0.2 2.7-0.4 4.1-0.7 2.8-0.4 5.6-0.7 8.5-1.2 0.1 0 0.2 0.2 0 0.3-2.8 0.6-5.6 1.4-8.4 2q-1.2 0.3-2.5 0.5 8.3 0.5 16.5 1.2c0.1 0.1 0.1 0.3 0 0.3-7.5-0.4-15-0.5-22.4-0.4-7.4 0.2-14.8 0.3-22.2 0.8-15 0.8-29.9 2.2-44.8 3.7-8.4 0.9-59 8.3-67.4 8.6q0 0-0.1 0-0.1 0.3-0.2 0.6-0.4 0.7-0.7 1.3-0.4 0.7-0.8 1.3-0.2 0.3-0.4 0.6-0.1 0.2-0.2 0.3c-0.1 0.1-0.2 0.2-0.2 0.3-0.1 0.2-0.4 0.1-0.3-0.1z"/>
									<path id="&lt;Path&gt;" class="s5" d="m105.3 315.1c2.7-4.3 5-8.9 7.4-13.3q3.7-6.6 7.4-13.3c4.9-8.8 22.5-38.4 24.3-40.5 0.1-0.2 0.3 0 0.3 0.1-0.9 2.3-11.9 22-14.4 26.4-5.1 8.7-10.4 17.3-15.7 25.9-1.5 2.5-3 5-4.5 7.4-1.5 2.5-3.2 4.9-4.6 7.4 0 0.1-0.3 0-0.2-0.1z"/>
									<path id="&lt;Path&gt;" class="s5" d="m144.9 255.4c4.4-1.1 8.9-1.8 13.4-2.6q6.7-1.3 13.4-2.5 13.4-2.5 26.8-4.8c17.9-3 35.8-5.5 53.9-7.2 10.2-1 20.4-1.7 30.6-2.4 0.2 0 0.2 0.3 0 0.3-18.2 0.8-36.3 3.3-54.3 5.9q-26.8 3.9-53.4 8.4-7.5 1.2-15 2.5c-5.1 0.9-10.2 2-15.3 2.7-0.2 0-0.3-0.3-0.1-0.3z"/>
								</g>
							</g>
						</g>
					</g>
					<g id="&lt;Group&gt;">
						<g id="&lt;Group&gt;">
							<path id="&lt;Path&gt;" class="s2" d="m94.1 569c4.3-0.4 111.3-48.5 114.3-53 1.1-1.6-5-17.6-12.9-36.7-1.7-4.2-3.5-8.4-5.4-12.7-11.9-28-25.2-57.5-25.2-57.5l-71.7 32 27.2 56.6 6 12.4c0 0-32.8 36.7-35.5 41.9-2.6 5.2-1.1 17.4 3.2 17z"/>
							<path id="&lt;Path&gt;" class="s3" d="m94.1 569c4.3-0.4 111.3-48.5 114.3-53 1.3-2-8-25.2-18.3-49.4l-69.7 31.1 6 12.4c0 0-32.8 36.7-35.5 41.9-2.6 5.2-1.1 17.4 3.2 17z"/>
							<g id="&lt;Group&gt;">
								<path id="&lt;Path&gt;" class="s4" d="m94.1 569c4.3-0.4 111.3-48.5 114.3-53 1.1-1.6-5-17.6-12.9-36.7l-69.1 30.8c0 0-32.8 36.7-35.5 41.9-2.6 5.2-1.1 17.4 3.2 17z"/>
								<g id="&lt;Group&gt;">
									<g id="&lt;Group&gt;">
										<path id="&lt;Path&gt;" class="s5" d="m93.7 564c17.8-8.5 90.1-41.1 108.3-48.2 0.2 0 0.2 0.1 0.1 0.1-17.4 8.9-90.1 40.9-108.3 48.4-0.3 0.2-0.5-0.1-0.1-0.3z"/>
										<path id="&lt;Path&gt;" class="s5" d="m96.1 545.1c4.2-2.1 9.2-2 12.7-0.5 3.3 1.4 6.8 4 8.3 7.8 0.1 0.1-0.1 0.2-0.2 0.1-4.2-6.6-13.3-9.9-20.7-7.2-0.2 0-0.3-0.2-0.1-0.2z"/>
										<path id="&lt;Path&gt;" class="s5" d="m120.2 515c7.1-3.3 16.6-4.6 23.7-0.7 0.3 0.2 0.1 0.6-0.2 0.5-8-0.4-15.3-0.1-23.2 1.1-0.6 0.1-0.8-0.7-0.3-0.9z"/>
										<path id="&lt;Path&gt;" class="s5" d="m115.6 519.6c7.2-3.3 16.6-4.5 23.7-0.6 0.3 0.1 0.1 0.5-0.2 0.5-8-0.4-15.3-0.2-23.2 1.1-0.5 0.1-0.8-0.7-0.3-1z"/>
										<path id="&lt;Path&gt;" class="s5" d="m111.1 524.3c7.1-3.3 16.6-4.5 23.7-0.7 0.2 0.2 0 0.6-0.2 0.5-8-0.4-15.3-0.1-23.3 1.1-0.5 0.1-0.7-0.7-0.2-0.9z"/>
										<path id="&lt;Path&gt;" class="s5" d="m106.5 528.9c7.1-3.3 16.6-4.5 23.7-0.6 0.3 0.1 0.1 0.5-0.2 0.5-8-0.4-15.3-0.1-23.2 1.1-0.6 0.1-0.8-0.7-0.3-1z"/>
										<path id="&lt;Path&gt;" class="s5" d="m189.8 500.8c8.1-3.6 13.7 9 5.6 12.6-8.1 3.6-13.7-9-5.6-12.6z"/>
									</g>
									<path id="&lt;Compound Path&gt;" fill-rule="evenodd" class="s5" d="m103.8 499.3c2.3-4.6 8.2-3.8 11.9-1.6 5.9 3.4 11.6 9.4 14.7 15.4 0.1 0.1 0 0.3-0.1 0.3 0.1 0.6-0.3 1.3-1 1.2-6.7-1.3-14-1.8-20.2-5-3.5-1.9-7.4-5.9-5.3-10.3zm15.7 11.3c3.3 0.7 6.6 1.2 9.8 2-2.9-3-5.6-6.1-8.8-8.8-1.5-1.3-3.1-2.6-4.8-3.7-2.6-1.6-12.4-4.5-9.6 3.7 1.6 4.5 9.5 6 13.4 6.8z"/>
									<path id="&lt;Compound Path&gt;" fill-rule="evenodd" class="s5" d="m149.5 507.7c-5.8 3.8-13.1 4.9-19.7 6.7-0.6 0.2-1.1-0.4-1.1-1-0.1-0.1-0.2-0.2-0.1-0.3 2.6-6.3 7.8-12.7 13.4-16.7 3.4-2.4 9.2-3.8 11.9 0.7 2.5 4.2-1 8.4-4.4 10.6zm2.5-6c2.1-8.3-7.4-4.7-9.9-2.8-1.6 1.2-3 2.7-4.4 4.1-3 2.9-5.5 6.3-8.1 9.5 3.2-1.1 6.4-1.9 9.6-2.8 3.9-1.2 11.6-3.4 12.8-8z"/>
								</g>
							</g>
						</g>
						<g id="&lt;Group&gt;">
							<path id="&lt;Path&gt;" class="s6" d="m188.5 460l-80.6 36.4c0 0-96-184.2-98.5-240.5-2.2-48 31.2-66.6 139.2-35.5l26.5 0.3v18.3c-11.6 1.5-42.6 6.4-42.6 6.4-22.5 8.5-29.8 12-29.4 12.7 56.2 113.5 85.4 201.9 85.4 201.9z"/>
							<g id="&lt;Group&gt;">
								<path id="&lt;Path&gt;" class="s5" d="m89.9 237.9c3.2 4.3 6.2 8.8 9.1 13.4 17.3-7.7 36.2-12.1 54.9-14.4q8-1 16-1.5c0.2 0 0.2 0.4 0 0.4-19 1.2-37.7 5-55.9 10.6-5 1.6-9.9 3.4-14.9 5.1 3.5 5.6 6.7 11.2 9.9 16.9 5.8 10.7 11.1 21.7 15.7 33 2.6 6.2 5.2 12.5 7.4 18.8 0 0.2-0.3 0.3-0.3 0.1-9.9-21.9-20.6-43.4-32.3-64.4-3.3-6-6.7-11.8-9.9-17.8-0.1-0.2 0.1-0.4 0.3-0.2z"/>
								<path id="&lt;Path&gt;" class="s5" d="m106.1 477c4.7-1.9 9.3-4.2 13.9-6.2q6.9-3.2 13.8-6.3c9.2-4.1 41.1-17.3 43.7-17.9 0.2 0 0.3 0.2 0.2 0.3-2.1 1.3-22.6 10.5-27.3 12.5-9.3 4-18.7 7.7-28.1 11.4-2.7 1.1-5.4 2.1-8 3.2-2.7 1.1-5.5 2-8.1 3.2-0.2 0.1-0.3-0.2-0.1-0.2z"/>
								<path id="&lt;Path&gt;" class="s5" d="m90.3 246.2c6.3 12.1 11.7 24.7 17.3 37.2q8.2 18.7 16 37.5c10.4 25.1 20 50.4 28.9 76 5.1 14.5 9.8 29 14.4 43.7 0.1 0.2-0.2 0.2-0.3 0-8.5-25.8-17.8-51.4-27.4-76.9q-14.5-38.1-30.8-75.4-4.5-10.5-9.2-21c-3.2-6.9-6.4-13.8-9.4-20.9-0.1-0.2 0.3-0.5 0.5-0.2z"/>
							</g>
						</g>
					</g>
				</g>
				<g id="&lt;Group&gt;">
					<g id="&lt;Group&gt;">
						<g id="&lt;Group&gt;">
							<path id="&lt;Path&gt;" class="s2" d="m141.3 93.4c-36 27.8-68.9 59.7-72.7 78.4-2.5 11.8 6.6 30.7 13.2 41.9 3.2 5.4 54.1-27.2 48.7-31.2-13.5-9.9-16.1-14.4-15.4-17 0.5-1.7 37.2-47.3 46.4-66.6 12.7-26.8-4.4-17.7-20.2-5.5z"/>
						</g>
						<g id="&lt;Group&gt;">
							<path id="&lt;Path&gt;" class="s0" d="m89.4 134.7l34.3 23.3c0 0 32.2-40.8 40-61.3 7.7-20.5-0.8-20.7-21-6.2-20.2 14.5-53.3 44.2-53.3 44.2z"/>
							<path id="&lt;Path&gt;" class="s0" d="m89.4 134.7l34.3 23.3c0 0 32.2-40.8 40-61.3 7.7-20.5-0.8-20.7-21-6.2-20.2 14.5-53.3 44.2-53.3 44.2z"/>
							<path id="&lt;Path&gt;" class="s5" d="m128.4 149.5c-15.5-9-27.5-19.1-30.3-21-0.1-0.1 0.1-0.3 0.2-0.2 2.6 2 18.3 11.9 30.3 20.9 0.1 0.1 0 0.3-0.2 0.3z"/>
							<path id="&lt;Path&gt;" class="s1" d="m166.4 86.9q-0.4 3.8-2.7 9.8c-7.8 20.5-40 61.3-40 61.3l-13.7-9.3z"/>
						</g>
					</g>
					<g id="&lt;Group&gt;">
						<path id="&lt;Path&gt;" class="s0" d="m244.3 220.2c-0.3 0.3-115.6 2.8-116.8 1.7-1.6-1.6 9.1-110.1 25.8-136.9 4.2-6.7 23.8-11.7 32.6-2.6 34.1 35.3 59.2 136.6 58.4 137.8z"/>
					</g>
					<g id="&lt;Group&gt;">
						<path id="&lt;Path&gt;" class="s2" d="m161 232.7c-4.7 3.9-13.2-8.4-13.2-8.4 0 0 0.5 4.1-1.9 7.3-2.7 3.7-9.7 1-9.7 1 0 0-0.3 4.3-3.2 7.5-3 3.3-10.4 1.6-10.4 1.6 0 0-2.5 3.8-6.9 4.8-7.6 1.6-15.8-6.9-21.1-12.3-5.3-5.4-15.3-25.5-17.6-29.2l34.2-34.2c0 0 30.5 17.3 35.8 24.5 4.5 6 21.1 31.5 14 37.4z"/>
						<g id="&lt;Group&gt;">
							<path id="&lt;Path&gt;" class="s5" d="m147.8 224c-3.2-7.5-8.2-14.3-13.1-20.8-0.1-0.2-0.4 0-0.3 0.1 5 6.4 8.4 14.3 13.1 20.9 0.1 0.2 0.4 0.1 0.3-0.2z"/>
							<path id="&lt;Path&gt;" class="s5" d="m136.5 232.1c-0.7-1.7-2.1-3.1-3.3-4.6q-1.9-2.3-3.9-4.5-4-4.4-8.2-8.7c-0.1-0.1-0.3 0.1-0.2 0.2q4 4.4 7.8 9 1.9 2.3 3.7 4.7c1.2 1.4 2.3 3 3.7 4.2 0.2 0.2 0.6-0.1 0.4-0.3z"/>
							<path id="&lt;Path&gt;" class="s5" d="m122.5 241.5c-0.6-1.5-2.1-2.7-3.2-3.9q-1.9-2-3.7-4c-2.4-2.7-4.9-5.4-7.3-8.1-0.1-0.2-0.3 0-0.2 0.2 2.4 2.8 4.7 5.6 7.1 8.4q1.8 2.1 3.6 4.1c1 1.2 2.2 2.8 3.6 3.5 0 0 0.1-0.1 0.1-0.2z"/>
						</g>
					</g>
					<g id="&lt;Group&gt;">
						<g id="&lt;Group&gt;">
							<path id="&lt;Path&gt;" class="s2" d="m193 85.3c55.7 28 107.3 71.5 106.1 88.4-1.2 17.9-31.6 43.2-60.9 52.5-5.9 1.9-33-39.7-27.1-42.9 4.6-2.4 25.7-12.8 27.8-16.3 1.5-2.5-41.8-44.8-57.6-68.1-16.5-24.4-3.2-21.1 11.7-13.6z"/>
							<g id="&lt;Group&gt;">
								<g id="&lt;Group&gt;">
									<path id="&lt;Path&gt;" class="s2" d="m223.5 179.7c0 0-18.4 5.3-30.2 9.3-6.6 2.2-17.6 7-21.7 10.9-6.2 5.8-28.2 33.8-21.5 39.3 6.1 5 12-5.7 12-5.7 0 0-7.6 11 0 14.1 7.6 3.1 13.9-11.5 13.9-11.5 0 0-8.8 11.2-0.5 13.7 7.2 2.2 16.3-13.9 16.3-13.9 0 0-10.5 10.7-3.3 13.7 8 3.3 24.6-19 24.6-19 16.4-1.1 26-4 36.7-9.2 2-1-26.3-41.7-26.3-41.7z"/>
								</g>
								<g id="&lt;Group&gt;">
									<path id="&lt;Path&gt;" class="s5" d="m173.7 239.8q0.8-1.7 1.7-3.4c1-2.2 2.1-4.4 3.4-6.4q2-3 4.1-5.8c1.5-2.1 3.2-3.9 4.7-5.9 0.1-0.2 0.4 0 0.2 0.1-1.5 1.9-2.7 4.2-4 6.3q-1.9 3.1-3.8 6.2c-1.2 2-2.5 4-3.8 6q-1 1.5-1.8 3c-0.6 1-1.1 2-1.8 2.9-0.1 0.1-0.2 0-0.2-0.1 0.3-1 0.9-2 1.3-2.9z"/>
									<path id="&lt;Path&gt;" class="s5" d="m160.5 235.8c0.6-2 5-10 6.2-12 2.4-3.8 5.1-7.5 8.3-10.8 0.1-0.1 0.3 0.1 0.2 0.2-2.4 3.8-4.8 7.7-7.3 11.5-1.2 1.9-6.3 10.5-6.9 11.4-0.2 0.2-0.5 0-0.5-0.3z"/>
									<path id="&lt;Path&gt;" class="s5" d="m186 243.8c0.6-2 4.8-9.5 6-11.3 1.1-1.7 6.7-8.2 8.6-9.8 0.1-0.1 0.3 0.1 0.2 0.2-2.6 3.5-5.3 6.9-7.7 10.5-1.2 1.7-5.5 9-6.8 10.5-0.1 0.2-0.4 0-0.3-0.1z"/>
								</g>
							</g>
						</g>
						<g id="&lt;Group&gt;">
							<path id="&lt;Path&gt;" class="s0" d="m255.7 120.9l-33 30.9c0 0-35.4-37.9-46.2-56.9-10.9-19-2.5-20.5 19.7-9.4 22.3 11.2 59.5 35.4 59.5 35.4z"/>
							<path id="&lt;Path&gt;" class="s5" d="m246.3 117.1c-12.2 13.9-24.9 24.1-27.3 26.5-0.2 0.2-0.3 0-0.2-0.1 2.5-2.3 15.7-16.2 27.3-26.6 0.1-0.1 0.3 0.1 0.2 0.2z"/>
							<path id="&lt;Path&gt;" class="s5" d="m224.8 149.7c-0.2 0.1-1.7 1.4-2 1.6-5.5-6.4-4.4-4.9-9.9-11.2q-4-4.7-8.1-9.4c-2.8-3.2-5.4-6.7-8.4-9.8-0.1-0.1-0.2 0-0.1 0.1 2 3.3 4.5 6.3 6.9 9.3-0.5-0.5-0.9-0.9-1.4-1.3-1.2-1-2.3-1.9-3.3-2.9-0.2-0.2-0.4 0-0.3 0.2 1 1 1.9 2 2.9 3 0.9 1.1 1.9 2.1 2.8 3 1 1 2 1.8 3 2.7q0.2 0.2 0.4 0.3 2.3 2.8 4.5 5.7c5.5 6.4 10.7 11.3 10.8 11.2 0.5-0.3 2.2-2.1 2.4-2.3 0.1-0.1-0.1-0.2-0.2-0.2z"/>
						</g>
					</g>
					<g id="&lt;Group&gt;">
						<g id="&lt;Group&gt;">
							<g id="&lt;Group&gt;">
								<path id="&lt;Path&gt;" class="s2" d="m162.6 102.6c4.9-0.7 13.4-11.5 16-19.9 0.2-0.5-1.7-5.8-3.6-12.3-1.2-4-2.5-8.4-3.3-12.5l-24.6 11.4c0 0 4.3 8.2 5.7 15.4q0.1 0.9 0.1 1.7 0 0.1 0 0.3c0.2 3.3 2 16.8 9.7 15.9z"/>
							</g>
							<path id="&lt;Path&gt;" class="s5" d="m152.9 86.4q0 0.1 0 0.3 1.3-0.1 2.7-0.4c15-3.3 15-22.5 14.7-27.8l-23.2 10.8c0 0 4.3 8.2 5.7 15.4q0.1 0.9 0.1 1.7z"/>
						</g>
						<g id="&lt;Group&gt;">
							<g id="&lt;Group&gt;">
								<path id="&lt;Path&gt;" class="s2" d="m173.9 30.1c3.1 9.3-1.1 36.4-7.6 42.6-9.4 9-25.2 10.3-32.9-1.1-7.5-11-1.4-46.4 5.9-52 10.7-8.4 30-3.2 34.6 10.5z"/>
							</g>
							<g id="&lt;Group&gt;">
								<g id="&lt;Group&gt;">
									<path id="&lt;Path&gt;" class="s5" d="m149.6 47.1c0-0.1 0.1 0.1 0.1 0.2-0.4 1.8-0.6 3.9 0.9 4.8 0.1 0.1 0 0.2 0 0.1-2-0.6-1.7-3.5-1-5.1z"/>
									<path id="&lt;Path&gt;" class="s5" d="m151.6 45.5c2.9 0.4 2 6.3-0.7 5.9-2.7-0.3-1.8-6.2 0.7-5.9z"/>
								</g>
								<g id="&lt;Group&gt;">
									<path id="&lt;Path&gt;" class="s5" d="m139.3 45.2c0-0.1-0.1 0-0.1 0.1-0.3 1.8-0.8 3.9-2.6 4.3v0.1c2.1 0 2.8-2.8 2.7-4.5z"/>
									<path id="&lt;Path&gt;" class="s5" d="m138 43c-2.9-0.7-4.1 5.2-1.4 5.8 2.7 0.6 3.8-5.2 1.4-5.8z"/>
								</g>
								<path id="&lt;Path&gt;" class="s5" d="m154.3 43.2c-0.8-0.4-1.4-0.8-2.2-1.2-0.8-0.4-1.5-0.7-1.9-1.6-0.3-0.5 0-1.2 0.4-1.5 1-0.6 2.2-0.3 3.2 0.2 1.1 0.5 1.8 1.2 2.3 2.4 0.5 1-0.8 2.1-1.8 1.7z"/>
								<path id="&lt;Path&gt;" class="s5" d="m136.1 37.1c0.8 0 1.6-0.2 2.4-0.3 1-0.1 1.7 0 2.5-0.7 0.4-0.3 0.4-1.1 0.1-1.5-0.7-1-1.8-1.2-3-1.1-1.2 0.1-2.1 0.5-3 1.3-0.9 0.9-0.1 2.3 1 2.3z"/>
								<path id="&lt;Path&gt;" class="s5" d="m148.6 64.5c-0.5 0.3-1 0.8-1.7 0.8-0.6 0-1.3-0.5-1.9-0.8l-0.1 0.1c0.4 0.8 1.3 1.4 2.2 1.4 0.8-0.1 1.4-0.7 1.7-1.4 0-0.1-0.1-0.2-0.2-0.1z"/>
								<g id="&lt;Group&gt;">
									<g id="&lt;Group&gt;">
										<path id="&lt;Path&gt;" class="s5" d="m147.5 58.7c-1.2 1.4-2.9 2-4.5 2.1q-1.2 0.1-2.3-0.2-0.2-0.1-0.4-0.1-0.2-0.1-0.4-0.2c-0.2 0-0.3-0.2-0.3-0.4q0-0.1 0-0.2l0.1-0.2c0.1-1.4 0.6-3.5 0.6-3.5-0.5 0.1-3.4 0.9-3.2 0.2 1.3-6.1 2.8-12.8 5.3-18.5 0.1-0.2 0.4-0.1 0.4 0.1-1.1 5.8-3.1 11.5-4.2 17.3 0.8-0.1 2.3-0.5 3-0.4 0.2 0.1-0.9 4.1-1 4.7q0 0 0 0.1c2.4 0.7 4.3 0.2 6.8-1 0.1-0.1 0.3 0.1 0.1 0.2z"/>
									</g>
								</g>
								<g id="&lt;Group&gt;">
									<path id="&lt;Path&gt;" class="s5" d="m141.6 60c0 0 1 1.9 2.6 2.7 0.6 0.4 1.3 0.6 2 0.5 1.6-0.2 1.8-1.5 1.7-2.7-0.1-1-0.4-1.9-0.4-1.9 0 0-2.4 1.7-5.9 1.4z"/>
									<path id="&lt;Path&gt;" class="s7" d="m144.2 62.7c0.6 0.4 1.3 0.6 2 0.5 1.6-0.2 1.8-1.5 1.7-2.7-1.6-0.1-3.3 0.7-3.7 2.2z"/>
								</g>
							</g>
							<g id="&lt;Group&gt;">
								<path id="&lt;Path&gt;" class="s5" d="m172.8 54.7c0 0 9.9-16.2 9-25.6-0.5-4.3-6.2-7.1-6.2-7.1 0 0 1.7-5.2-3.1-9.7-5-4.7-17.1-3.6-17.1-3.6 0 0-7.9-11.4-19-6.9-11.2 4.5-3.9 17.1-3.9 17.1 0 0-4.1 5.8 5.9 10.4 9.7 4.4 29.6 0 29.6 0 0 0-1.6 10.2 0.3 20.6 0.7 3.9 4.5 4.8 4.5 4.8z"/>
								<path id="&lt;Path&gt;" class="s5" d="m153.5 8.8c2.4-1.1 5.1-1.4 7.8-1.4 2.4 0 4.8 0.3 7.1 1.1 4 1.4 7.5 4.4 8.2 8.8 0.3 2.2-0.2 4.4-1.6 6.2l-0.1-0.1c2.6-3.2 1.3-8.2-1.4-10.9-3-3-7.6-4.1-11.7-4.3-2.8-0.1-5.6 0.3-8.3 0.9-0.1 0-0.2-0.2 0-0.3z"/>
								<path id="&lt;Path&gt;" class="s5" d="m128.4 7.2c0.9-3.2 3.6-5.2 6.6-6.1 3.4-1.1 7.2-0.9 10.6 0.4 3.4 1.2 6.3 3.5 8.6 6.4 0 0-0.1 0.1-0.1 0-4.2-4.9-10.8-7.7-17.2-6.4-2.9 0.6-5.8 2.1-7.2 4.9-1.2 2.5-0.9 5.8 0.3 8.3 1.5 3.1 4.3 5.4 7.1 7.1 0.1 0.1 0 0.2 0 0.2-2.8-1.5-5.4-3.5-7.2-6.1-1.6-2.6-2.4-5.8-1.5-8.7z"/>
							</g>
							<g id="&lt;Group&gt;">
								<path id="&lt;Path&gt;" class="s2" d="m168.7 52.3c0 0 6.1-8.8 10.1-6.7 3.9 2.2-0.6 14.9-5.2 16.7-4.7 1.7-6.4-2.5-6.4-2.5z"/>
								<path id="&lt;Path&gt;" class="s5" d="m177.4 49.2c0 0 0.1 0.1 0 0.2-3.3 1.3-5 4.4-6.1 7.5 0.9-1.2 2.2-1.9 3.9-0.7 0.1 0 0 0.2-0.1 0.1-1.4-0.2-2.3 0-3.2 1.1-0.7 0.7-1.1 1.7-1.5 2.6-0.2 0.3-0.7 0.1-0.6-0.2q0-0.1 0-0.1c-0.1-4.2 3.1-10 7.6-10.5z"/>
							</g>
						</g>
						<path id="&lt;Path&gt;" class="s5" d="m181.1 85.5c-2.4 4.5-4 8.5-6.7 12.2-2.6 3.4-5.8 6.7-10 7.9-4 1.1-8.2 1-10.7-3.7-1.9-3.7-2.5-7.9-2.7-13.1-0.1-0.2-0.4-0.2-0.4 0 0.4 6.7 1.3 17.1 7.6 18.2 7.2 1.3 13-3.3 16.8-8.8 2.6-3.7 4.3-7.9 6.2-12.6 0.1-0.1-0.1-0.1-0.1-0.1z"/>
					</g>
				</g>
				<g id="&lt;Group&gt;">
					<g id="&lt;Group&gt;">
						<g id="&lt;Group&gt;">
							<g id="&lt;Group&gt;">
								<path id="&lt;Path&gt;" class="s8" d="m101.6 245.3v5.7h127.9v-5.7z"/>
							</g>
							<g id="&lt;Group&gt;">
								<path id="&lt;Path&gt;" class="s4" d="m101.6 245.3v5.7h86.9l-4.3-5.7z"/>
							</g>
						</g>
						<g id="&lt;Group&gt;">
							<path id="&lt;Path&gt;" class="s8" d="m178.6 251h-124.6l-10.4-84.6h124.7z"/>
							<path id="&lt;Path&gt;" class="s3" d="m118.7 208.7c0.1 4.2-3.2 7.6-7.4 7.6-4.2 0-7.7-3.4-7.7-7.6-0.1-4.2 3.2-7.6 7.4-7.6 4.2 0 7.7 3.4 7.7 7.6z"/>
						</g>
					</g>
				</g>
			</g>
		</g>
	</g>
</svg>