<svg version="1.2" xmlns="http://www.w3.org/2000/svg" viewBox="0 0 225 225" width="225" height="225">
	<title>expressjs-icon</title>
	<style>
		.s0 { fill: #ffffff } 
	</style>
	<g id="Layer">
		<path id="Layer" fill-rule="evenodd" class="s0" d="m121.1 0.5c20.3 1.1 40.7 8.6 57.6 21.3 15.6 11.6 27.4 26 35.6 42.9 6.3 13.2 9.6 26.4 10.3 42 1.3 27.6-5.9 51.7-21.6 72.6-8.4 11.1-18 20.3-29.2 27.8-18.1 12.2-37.8 17.9-61.3 17.9-17.8 0-32.7-3.1-47.6-10.1-19-8.8-37.8-26-49.1-44.6-9.5-15.8-14.5-32.7-15.4-51.6-1.5-31.4 8-58.1 28.7-81.3 6.9-7.7 17.2-16.3 25.9-21.6 15.6-9.3 32.6-14.5 51.1-15.4 5.4-0.3 6.7-0.3 15 0.1zm-57.9 68.8c-5 0.8-11.1 3.2-15.6 6.2-8.1 5.6-14.1 15.1-16.6 26.4-1 4.6-0.9 16.2 0.2 21.5 2.1 10.4 5.4 17 11.4 22.8 5.7 5.6 12.5 8.8 21.2 9.9 8.6 1 18.5-0.4 24.8-3.5 9-4.6 15.1-12.3 17.1-22l0.3-1.1h-13.8l-0.2 1.2c-1.1 5.5-7.1 11-14.1 12.9-3.6 1-11.6 0.9-15.4-0.2-10.8-3.1-17-11.3-17.6-23.4l-0.2-4h62.7v-2.2c0-1.3-0.2-3.8-0.4-5.8-1.4-12.4-5.1-21.5-11.9-28.6-4.6-4.8-9.8-7.9-15.8-9.4-3.5-0.9-12.5-1.3-16.1-0.7zm68.1-0.4h-9c-5.1 0-9.1 0.2-9.1 0.4 0 0.1 6.7 9.3 14.8 20.4 8.1 11.1 14.8 20.3 14.9 20.6 0.1 0.2-7.1 10.6-16 23.1-8.9 12.5-16.2 22.8-16.2 22.9 0 0.1 3.9 0.1 8.6 0.1h8.7l12-17.8c6.5-9.9 12.1-17.9 12.2-17.9 0.2 0 5.7 8 12.2 17.9l12 17.8h9.2c7.3 0 9.2-0.1 9-0.4-0.2-0.3-7.8-10.9-16.9-23.6-15.7-21.9-16.4-23.1-15.9-23.8 0.3-0.5 7-9.6 14.9-20.2l14.5-19.3-8.3-0.1c-4.6 0-8.5 0-8.7 0.1-0.2 0-5.2 6.9-11.1 15.1-5.8 8.2-10.7 15-10.9 15-0.2 0-4.9-6.8-10.6-15.1z"/>
		<path id="Layer" class="s0" d="m65.2 81.3c-5.3 0.7-9.3 2.7-13.2 6.6-2.3 2.2-3 3.3-4.4 6.2-1.6 3.2-2.8 7.5-2.8 9.6v1h23.8 23.9v-1.2c0-2.2-1.4-6.8-2.9-9.7-3.6-6.9-10-11.4-17.7-12.4-3-0.5-3.7-0.5-6.7-0.1z"/>
	</g>
</svg>