<svg version="1.2" xmlns="http://www.w3.org/2000/svg" viewBox="0 0 225 225" width="225" height="225">
	<title>git-icon</title>
	<style>
		.s0 { fill: #ffffff } 
	</style>
	<path id="Layer" class="s0" d="m220.8 102.5l-98.3-98.3c-1.3-1.3-2.9-2.4-4.7-3.1-1.7-0.7-3.6-1.1-5.5-1.1-1.9 0-3.8 0.4-5.5 1.1-1.8 0.7-3.4 1.8-4.8 3.1l-20.4 20.4 25.9 25.9c13.6-4.6 26.5 8.4 21.8 22l24.9 24.9c17.2-5.9 30.8 15.6 17.8 28.5-13.3 13.3-35.2-1.5-28.1-18.8l-23.3-23.2v61.2c12.8 6.3 11.2 21 4.6 27.6-1.6 1.6-3.5 2.9-5.6 3.7-2.1 0.9-4.3 1.3-6.6 1.3-2.2 0-4.5-0.4-6.6-1.3-2.1-0.8-4-2.1-5.6-3.7-8.8-8.8-5.5-23.6 5.7-28.1v-61.8c-10.5-4.3-12.4-15.4-9.4-22.6l-25.5-25.5-67.4 67.3c-1.3 1.4-2.4 3-3.1 4.7-0.7 1.8-1.1 3.7-1.1 5.6 0 1.9 0.4 3.8 1.1 5.5 0.7 1.8 1.8 3.4 3.1 4.7l98.3 98.3c1.3 1.3 2.9 2.4 4.7 3.1 1.7 0.7 3.6 1.1 5.5 1.1 1.9 0 3.8-0.4 5.6-1.1 1.7-0.7 3.3-1.8 4.7-3.1l97.8-97.8c1.3-1.4 2.4-3 3.1-4.7 0.7-1.8 1.1-3.7 1.1-5.6 0-1.9-0.4-3.8-1.1-5.5-0.7-1.8-1.8-3.4-3.1-4.7z"/>
</svg>