<svg version="1.2" xmlns="http://www.w3.org/2000/svg" viewBox="0 0 225 225" width="225" height="225">
	<title>javascript-icon</title>
	<style>
		.s0 { fill: #ffffff } 
	</style>
	<path id="Layer" fill-rule="evenodd" class="s0" d="m0 24c0-13.3 10.7-24 24-24h177c13.3 0 24 10.7 24 24v177c0 13.3-10.7 24-24 24h-177c-13.3 0-24-10.7-24-24zm122.4 79.3h-21.1v71.9c0 10.6-4.4 13.3-11.4 13.3-7.2 0-10.2-5-13.6-10.9l-17.2 10.4c5 10.6 14.8 19.4 31.8 19.4 18.7 0 31.5-10 31.5-31.9zm85.1 74.6c0-17.7-10.1-25.6-28.1-33.2l-5.3-2.3c-9.1-4-13-6.5-13-12.9 0-5.1 3.9-9 10.1-9 6.1 0 10 2.6 13.6 9l16.5-10.5c-6.9-12.3-16.6-16.9-30-16.9-18.9 0-31 12-31 27.9 0 17.2 10.1 25.4 25.4 31.9l5.3 2.3c9.7 4.2 15.4 6.8 15.4 14 0 6.1-5.6 10.5-14.4 10.5-10.4 0-16.3-5.5-20.8-12.9l-17.3 9.9c6.2 12.3 18.9 21.6 38.6 21.6 20 0 35-10.4 35-29.4z"/>
</svg>