<svg version="1.2" xmlns="http://www.w3.org/2000/svg" viewBox="0 0 445 393" width="445" height="393">
	<title>mobile-avatar</title>
	<style>
		.s0 { fill: #f7a9a0 } 
		.s1 { fill: #ffffff } 
		.s2 { fill: #a6a6a6 } 
		.s3 { fill: #263238 } 
		.s4 { fill: #37474f } 
		.s5 { fill: #00ccff } 
		.s6 { fill: #ff97b8 } 
		.s7 { fill: #c7c7c7 } 
	</style>
	<g id="Character">
		<g id="&lt;Group&gt;">
			<g id="&lt;Group&gt;">
				<g id="&lt;Group&gt;">
					<g id="&lt;Group&gt;">
						<g id="&lt;Group&gt;">
							<path id="&lt;Path&gt;" class="s0" d="m0.8 369.1c1.7-4.7 87.4-113.2 93.2-115.2 0.6-0.3 37.4 27 37.4 27 1.5 2.1 72.7-11.4 72.7-11.4l-1.1 85.6-129.1-5.5c0 0-17.6 9.9-33.8 17.9-10 5-18.7 9.2-21.2 9.8-6.5 1.5-19.7-3.6-18.1-8.2z"/>
							<path id="&lt;Path&gt;" class="s1" d="m18.9 377.3c2.5-0.6 11.2-4.8 21.2-9.8q0 0.1 0 0c16.1-8 33.8-17.9 33.8-17.9l28.7 1.2 46.5-71.6c-9.9 1.5-17.3 2.4-17.7 1.7 0 0-36.8-27.3-37.4-27-5.8 2-91.5 110.5-93.2 115.2-1.6 4.6 11.6 9.7 18.1 8.2z"/>
							<g id="&lt;Group&gt;">
								<path id="&lt;Path&gt;" class="s2" d="m0.1 369.2c1.7-4.8 87.8-113.2 93.7-115.3 2.2-0.8 20.3 10.9 37.6 27l-55.6 69.9c0 0-50.5 25.4-57.2 26.9-6.7 1.6-20.3-3.7-18.5-8.5z"/>
								<g id="&lt;Group&gt;">
									<g id="&lt;Group&gt;">
										<path id="&lt;Path&gt;" class="s3" d="m5.6 371.1c14.9-17.8 73.3-91.1 86.6-109.9 0.1-0.1 0-0.2-0.1-0.1-15.1 17.4-72.9 91.1-86.8 109.8-0.2 0.3 0 0.6 0.3 0.2z"/>
										<path id="&lt;Path&gt;" class="s3" d="m28 373.9c3.6-4.2 4.9-10 4.2-14.4-0.7-4.2-2.6-8.9-6.5-11.8-0.1-0.1-0.2 0.1-0.1 0.2 6.3 6.7 7.4 18.1 2.2 25.8-0.1 0.1 0.1 0.3 0.2 0.2z"/>
										<path id="&lt;Path&gt;" class="s3" d="m69.4 355c5.9-7.2 10-17.6 7.7-26.9-0.1-0.3-0.6-0.2-0.7 0.1-1.8 9.3-4.3 17.5-8 26.2-0.2 0.7 0.6 1.1 1 0.6z"/>
										<path id="&lt;Path&gt;" class="s3" d="m62.8 358.9c5.8-7.2 10-17.7 7.6-26.9-0.1-0.4-0.6-0.2-0.6 0.1-1.9 9.2-4.3 17.5-8 26.2-0.3 0.6 0.5 1.1 1 0.6z"/>
										<path id="&lt;Path&gt;" class="s3" d="m56.1 362.8c5.9-7.2 10-17.7 7.7-26.9-0.1-0.4-0.6-0.3-0.7 0.1-1.8 9.2-4.3 17.5-8 26.2-0.2 0.6 0.6 1.1 1 0.6z"/>
										<path id="&lt;Path&gt;" class="s3" d="m49.5 366.7c5.8-7.2 10-17.7 7.6-27-0.1-0.3-0.6-0.2-0.6 0.1-1.9 9.3-4.3 17.6-8 26.3-0.3 0.6 0.6 1.1 1 0.6z"/>
										<path id="&lt;Path&gt;" class="s3" d="m105.8 279.6c6.5-8.2-6.2-18.3-12.7-10.1-6.5 8.2 6.2 18.3 12.7 10.1z"/>
									</g>
									<path id="&lt;Compound Path&gt;" fill-rule="evenodd" class="s3" d="m72.4 369.3c-2-8-0.4-16.5 0.1-24.5 0.1-0.9 1-1.1 1.7-0.9 0-0.1 0.2-0.2 0.3 0 6 5.4 11.2 13.6 13.4 21.4 1.4 4.7 0.7 11.7-5.3 13-5.7 1.2-9.1-4.4-10.2-9zm5.7 5.1c8.5 5.5 8.1-6.4 7-9.9-0.8-2.3-1.8-4.5-2.8-6.6-2.2-4.4-5-8.5-7.5-12.6-0.1 3.9-0.4 7.9-0.6 11.8-0.2 4.7-0.7 14.2 3.9 17.3z"/>
									<path id="&lt;Compound Path&gt;" fill-rule="evenodd" class="s3" d="m99.7 321.7c4.3 4.4 1 10.6-2.8 13.8-6.1 5.3-15 9.3-22.9 10.5-0.2 0.1-0.3-0.1-0.3-0.2-0.7-0.2-1.3-0.9-0.9-1.6 4-7 7.4-15 13.4-20.5 3.5-3.3 9.4-6.1 13.5-2zm-18.7 13.1c-2 3.4-3.9 6.9-6 10.2 4.4-2.1 9-3.9 13.2-6.4 2.1-1.2 4.1-2.5 6-4 2.8-2.3 9.8-12-0.4-12.1-5.6 0-10.3 8.3-12.8 12.3z"/>
								</g>
							</g>
						</g>
						<g id="&lt;Group&gt;">
							<path id="&lt;Path&gt;" class="s4" d="m208.3 249.2l58.2-4.6c0 0 84.1-24.4 132.6-11.6 55.8 14.6 63.6 79.7 7 105.8-56.1 25.8-302.7 16.3-302.7 16.3l52.8-78.4c0 0 81.3-19 152.4-15.2l-100.7 11.6z"/>
							<path id="&lt;Path&gt;" class="s3" d="m208.8 265.7c8.7-1.4 17.5-2.1 26.2-2.9 8.8-0.8 17.6-1.5 26.5-2 17.6-1.1 35.3-1.5 52.9-0.8q2.5 0.1 5 0.2c0.3-0.1 0.7-0.1 1.1-0.2q1.2-0.3 2.5-0.5c1.6-0.3 3.2-0.5 4.8-0.7 3.4-0.5 6.8-0.7 10.1-1.3 0.2 0 0.3 0.3 0.1 0.3-3.4 0.7-6.7 1.6-10.1 2.2q-1.4 0.3-2.9 0.6c6.5 0.5 13 1.1 19.4 1.8 0.2 0 0.2 0.4 0 0.3-8.8-0.7-17.6-0.9-26.4-0.9-8.8-0.1-17.5-0.1-26.3 0.3-17.6 0.6-35.3 1.8-52.9 3.3-9.9 0.8-19.8 1.8-29.8 2-0.9 0.1-1.1-1.5-0.2-1.7z"/>
							<path id="&lt;Path&gt;" class="s3" d="m128.6 353.3c3.3-5 6.1-10.4 9.1-15.5q4.5-7.8 9-15.5c6-10.3 27.6-44.9 29.7-47.3 0.1-0.1 0.4 0.1 0.3 0.2-1 2.7-14.5 25.6-17.6 30.7-6.2 10.3-12.7 20.3-19.1 30.3-1.8 2.9-3.7 5.8-5.6 8.6-1.8 2.9-3.8 5.7-5.5 8.6-0.1 0.2-0.4 0-0.3-0.1z"/>
						</g>
					</g>
					<g id="&lt;Group&gt;">
						<g id="&lt;Group&gt;">
							<path id="&lt;Path&gt;" class="s0" d="m418.2 384.8c-1.4-4.7-81.9-117.1-87.5-119.4-0.7-0.3-38.7 25.2-38.7 25.2-1.6 2-72.1-14.8-72.1-14.8l-2.9 85.5 129.2 0.7c0 0 17.1 10.7 32.9 19.5 9.7 5.4 18.3 10 20.7 10.7 6.4 1.8 19.9-2.6 18.4-7.4z"/>
							<path id="&lt;Path&gt;" class="s1" d="m399.8 392.2c-2.4-0.7-11-5.3-20.7-10.7-15.8-8.8-32.9-19.5-32.9-19.5l-28.8-0.2-43-73.8c9.8 2 17.1 3.3 17.6 2.6 0 0 38-25.5 38.7-25.2 5.6 2.3 86.1 114.7 87.5 119.4 1.5 4.8-11.9 9.2-18.4 7.4z"/>
							<g id="&lt;Group&gt;">
								<path id="&lt;Path&gt;" class="s2" d="m419 385c-1.5-4.9-82.4-117.2-88.2-119.6-2.2-0.9-20.7 9.9-38.8 25.2l52.3 72.4c0 0 49.2 27.8 55.8 29.7 6.6 1.8 20.4-2.8 18.9-7.7z"/>
								<g id="&lt;Group&gt;">
									<g id="&lt;Group&gt;">
										<path id="&lt;Path&gt;" class="s3" d="m413.3 386.6c-14-18.5-68.8-94.4-81.2-113.8-0.1-0.1 0-0.2 0.1-0.1 14.3 18.1 68.5 94.5 81.4 113.7 0.3 0.4 0 0.6-0.3 0.2z"/>
										<path id="&lt;Path&gt;" class="s3" d="m390.9 388.4c-3.4-4.4-4.5-10.3-3.6-14.6 0.9-4.2 3.1-8.8 7.1-11.5 0.1 0 0.2 0.2 0.1 0.3-6.6 6.3-8.2 17.7-3.4 25.6 0.1 0.1-0.1 0.3-0.2 0.2z"/>
										<path id="&lt;Path&gt;" class="s3" d="m350.4 367.6c-5.5-7.5-9.2-18.1-6.4-27.3 0.1-0.3 0.6-0.2 0.7 0.1 1.4 9.4 3.4 17.8 6.7 26.6 0.2 0.7-0.6 1.1-1 0.6z"/>
										<path id="&lt;Path&gt;" class="s3" d="m356.8 371.8c-5.5-7.5-9.1-18.2-6.3-27.3 0.1-0.3 0.6-0.2 0.6 0.1 1.4 9.4 3.5 17.7 6.8 26.6 0.2 0.7-0.7 1.1-1.1 0.6z"/>
										<path id="&lt;Path&gt;" class="s3" d="m363.3 376c-5.5-7.5-9.2-18.2-6.4-27.3 0.2-0.3 0.7-0.2 0.7 0.1 1.4 9.4 3.4 17.7 6.7 26.6 0.3 0.6-0.6 1.1-1 0.6z"/>
										<path id="&lt;Path&gt;" class="s3" d="m369.8 380.1c-5.6-7.4-9.2-18.1-6.4-27.2 0.1-0.4 0.6-0.2 0.7 0.1 1.3 9.4 3.4 17.7 6.7 26.6 0.2 0.6-0.6 1.1-1 0.5z"/>
										<path id="&lt;Path&gt;" class="s3" d="m317.6 290.5c-6-8.5 7.1-17.9 13.2-9.4 6.1 8.4-7.1 17.9-13.2 9.4z"/>
									</g>
									<path id="&lt;Compound Path&gt;" fill-rule="evenodd" class="s3" d="m336.1 390.2c-5.9-1.5-6.2-8.6-4.7-13.3 2.6-7.6 8.2-15.6 14.4-20.7 0.2-0.1 0.3-0.1 0.4 0.1 0.6-0.3 1.6 0.1 1.6 0.9 0.1 8 1.3 16.6-1 24.4-1.4 4.6-5.1 10.1-10.7 8.6zm9.4-20.8c0-3.9-0.1-7.9 0-11.8-2.8 4-5.7 7.9-8.1 12.3-1.1 2-2.3 4.2-3.1 6.4-1.3 3.4-2.3 15.3 6.5 10.2 4.8-2.8 4.7-12.4 4.7-17.1z"/>
									<path id="&lt;Compound Path&gt;" fill-rule="evenodd" class="s3" d="m335.1 335.4c5.7 5.9 8.8 14 12.4 21.2 0.4 0.7-0.3 1.4-1 1.5q0 0.3-0.3 0.3c-7.8-1.6-16.5-6.1-22.4-11.6-3.6-3.4-6.6-9.8-2.1-13.9 4.3-3.9 10.1-0.9 13.4 2.5zm-7.6-1.4c-10.1-0.5-3.6 9.6-0.9 12 1.8 1.6 3.8 2.9 5.8 4.2 4.1 2.7 8.6 4.8 12.9 7.1-2-3.4-3.7-7-5.6-10.5-2.2-4.1-6.6-12.6-12.2-12.8z"/>
								</g>
							</g>
						</g>
						<g id="&lt;Group&gt;">
							<path id="&lt;Path&gt;" class="s4" d="m216.7 249.5l-57.9-1.6c0 0-59.9-30.7-109-20.3-56.3 12-65.4 82.1-24.2 108.1 52.2 32.9 288.3 33.1 288.3 33.1l-48.7-87.8c0 0-78-18.6-149.3-18.1l100.1 16.3z"/>
							<path id="&lt;Path&gt;" class="s3" d="m268.4 286.6c-0.1-0.1-0.1-0.3-0.1-0.4q0-0.2-0.1-0.4-0.1-0.4-0.2-0.8-0.2-0.9-0.5-1.7-0.3-0.9-0.7-1.7c-0.2-0.6-0.6-1-0.9-1.5 0-0.1-0.1-0.1-0.1-0.1q-0.1-0.1-0.1-0.1-0.1 0-0.1-0.1-0.1 0-0.2 0c-8.6-1.9-67-11.8-75.7-13-8.7-1.3-17.5-2.3-26.3-3.3-17.5-1.9-35.2-3.1-52.9-3.3q-2.4 0-4.9 0c-0.4-0.1-0.7-0.2-1.1-0.3q-1.2-0.3-2.5-0.6c-1.6-0.4-3.2-0.6-4.8-0.9-3.3-0.6-6.7-1.1-10-1.8-0.2 0-0.3 0.3-0.1 0.3 3.4 0.9 6.6 1.9 9.9 2.7q1.5 0.4 2.9 0.7c-6.5 0.2-12.9 0.5-19.4 0.9-0.2 0-0.2 0.4 0 0.4 8.8-0.3 17.6-0.2 26.4 0.2 8.8 0.4 17.5 0.8 26.2 1.6 17.6 1.4 35.2 3.5 52.8 5.8 9.8 1.3 69.3 11.6 79.2 12.3q0.1 0 0.2 0 0.1 0.3 0.2 0.6 0.4 0.9 0.8 1.7 0.4 0.7 0.9 1.5 0.2 0.3 0.4 0.7 0.1 0.2 0.3 0.4c0 0.1 0.2 0.2 0.2 0.4 0.1 0.2 0.4 0 0.3-0.2z"/>
							<path id="&lt;Path&gt;" class="s3" d="m295.6 363c-3-5.1-5.6-10.6-8.3-15.9q-4.2-7.9-8.3-15.9c-5.5-10.5-25.4-46.1-27.4-48.6-0.2-0.2-0.4 0-0.4 0.2 0.9 2.7 13.3 26.3 16.2 31.5 5.7 10.5 11.7 20.8 17.6 31.2 1.7 2.9 3.5 5.9 5.2 8.8 1.7 3 3.6 5.9 5.1 8.9 0.1 0.2 0.4 0 0.3-0.2z"/>
						</g>
					</g>
				</g>
				<g id="&lt;Group&gt;">
					<g id="&lt;Group&gt;">
						<path id="&lt;Path&gt;" class="s5" d="m151.7 248.9l135.7 6.5c2-2.2-8.2-82.9-20.4-116.5-15.6-43.2-25.6-47.5-31.5-50.4-7.6-3.7-21.7-3.8-25.2-2.5-4 1.3-21.9 19.1-27.8 34.1-12 29.9-32.5 126.7-30.8 128.8z"/>
					</g>
					<g id="&lt;Group&gt;">
						<g id="&lt;Group&gt;">
							<path id="&lt;Path&gt;" class="s0" d="m254.2 101.4c57.3 45.3 106.3 107.5 100.9 126.6-5.6 20.3-46.5 42.1-82.3 45.9-7.3 0.7-28.6-53.4-21-55.6 5.8-1.8 32.5-8.7 35.8-12.2 2.2-2.5-37.4-61.4-50-91.9-13.2-32 1.3-25 16.6-12.8z"/>
							<g id="&lt;Group&gt;">
								<g id="&lt;Group&gt;">
									<path id="&lt;Path&gt;" class="s0" d="m266.9 217c0 0-22.4 1.7-36.9 3.5-8.2 1-21.9 3.9-27.6 7.4-8.4 5.2-40.3 32.2-33.9 40.1 5.8 7.1 15-3.7 15-3.7 0 0-11.2 10.9-3.3 16.2 8 5.4 18.7-9.9 18.7-9.9 0 0-12.8 10.7-3.8 15.6 7.8 4.2 22.1-12.1 22.1-12.1 0 0-14.6 9.8-7.1 14.9 8.4 5.7 32.8-16 32.8-16 19 2.6 30.8 1.6 44.3-1.8 2.5-0.7-20.3-54.2-20.3-54.2z"/>
								</g>
								<g id="&lt;Group&gt;">
									<path id="&lt;Path&gt;" class="s3" d="m195.4 274.2c0.9-1.2 1.8-2.3 2.7-3.5 1.8-2.2 3.5-4.4 5.5-6.5q3-3 6.1-5.7c2.2-2 4.6-3.7 6.8-5.7 0.2-0.2 0.4 0.1 0.2 0.2-2.2 1.9-4.1 4.2-6.1 6.3q-2.9 3.1-5.8 6.2c-1.9 2.1-3.9 4-5.8 6-1 1-1.9 2-2.9 3-0.8 1-1.6 2.1-2.6 2.9-0.2 0.1-0.3 0-0.2-0.1 0.5-1.1 1.4-2.1 2.1-3.1z"/>
									<path id="&lt;Path&gt;" class="s3" d="m181.2 266.6c1.1-2.2 8.1-10.4 10-12.4 3.6-3.8 7.6-7.4 12-10.4 0.1-0.1 0.3 0.1 0.2 0.2-3.6 3.9-7.3 7.7-11 11.6-1.9 1.8-9.8 10.6-10.8 11.4-0.2 0.2-0.5-0.2-0.4-0.4z"/>
									<path id="&lt;Path&gt;" class="s3" d="m208.6 281.7c1.2-2 7.7-9.7 9.5-11.5 1.8-1.7 9.7-7.8 12.3-9.2 0.1-0.1 0.3 0.2 0.2 0.3-3.8 3.3-7.7 6.6-11.4 10.2-1.8 1.7-8.5 9-10.3 10.5-0.2 0.1-0.4-0.1-0.3-0.3z"/>
								</g>
							</g>
						</g>
						<g id="&lt;Group&gt;">
							<path id="&lt;Path&gt;" class="s5" d="m316.9 157.4l-44.9 27c0 0-30.9-51.5-38.6-75.7-7.6-24.2 2.2-23.9 24.7-5.8 22.5 18.1 58.8 54.5 58.8 54.5z"/>
							<path id="&lt;Path&gt;" class="s3" d="m274.9 182.6c-0.3 0-2.3 1.1-2.7 1.3-4.6-8.6-9.6-17.3-14.3-25.9q-3.4-6.2-6.9-12.5c-2.4-4.4-4.5-8.9-7.1-13.2-0.1-0.1-0.3 0-0.2 0.1 1.5 4.2 3.6 8.2 5.6 12.2-0.5-0.6-0.9-1.3-1.3-1.9-1.1-1.3-2.1-2.6-3-4-0.2-0.2-0.5 0-0.4 0.2 0.9 1.3 1.7 2.7 2.5 4.1 0.8 1.4 1.6 2.7 2.5 4.1 0.9 1.3 1.8 2.5 2.7 3.8q0.2 0.2 0.4 0.4c1.2 2.5 2.5 5 3.8 7.5 4.6 8.6 15.1 26.1 15.3 26 0.6-0.1 3-1.8 3.2-2 0.1-0.1 0-0.2-0.1-0.2z"/>
						</g>
					</g>
					<g id="&lt;Group&gt;">
						<g id="&lt;Group&gt;">
							<path id="&lt;Path&gt;" class="s0" d="m177.5 101.2c-48.7 27.3-94.2 60.2-102.3 82.2-5 13.9 2.6 38.5 8.6 53.2 2.9 7.2 70.5-23.3 64.7-29.2-14.6-14.4-17.1-20.3-15.6-23.4 0.9-1.9 53.6-50.8 68.1-72.5 20.2-30.3-2.2-22.3-23.5-10.3z"/>
							<g id="&lt;Group&gt;">
								<path id="&lt;Path&gt;" class="s0" d="m176.5 273.8c-6.3 3.9-14.5-12.6-14.5-12.6 0 0 0 5.1-3.5 8.6-4 4-12-0.5-12-0.5 0 0-1.2 5.2-5.2 8.5-4.2 3.5-12.9 0.1-12.9 0.1 0 0-3.8 4.2-9.3 4.6-9.5 0.6-18-11.3-23.4-18.7-5.5-7.5-14-33.7-16.1-38.6l47.5-35.4c0 0 34 26.4 39.2 36.1 4.3 8.2 20 42.1 10.2 47.9z"/>
								<g id="&lt;Group&gt;">
									<path id="&lt;Path&gt;" class="s3" d="m162.1 261c-2.5-9.8-7.4-19-12.2-27.7-0.1-0.2-0.4-0.1-0.3 0.1 4.9 8.7 7.6 18.9 12.1 27.7 0.1 0.3 0.5 0.1 0.4-0.1z"/>
									<path id="&lt;Path&gt;" class="s3" d="m147 268.7c-0.7-2.2-2-4.2-3.2-6.1q-1.9-3.1-4-6.2-4-6.1-8.4-12c-0.1-0.2-0.4 0-0.3 0.2q4.1 6.1 7.9 12.3 1.8 3.2 3.7 6.3c1.1 2 2.2 4.2 3.7 5.8 0.2 0.3 0.7 0 0.6-0.3z"/>
									<path id="&lt;Path&gt;" class="s3" d="m128.3 277.7c-0.5-1.9-2.1-3.7-3.2-5.4q-1.9-2.7-3.8-5.5c-2.5-3.7-5-7.3-7.4-11.1-0.1-0.2-0.4 0-0.3 0.1 2.4 3.9 4.8 7.8 7.2 11.6q1.8 2.8 3.6 5.6c1 1.6 2.1 3.7 3.7 4.8 0.1 0.1 0.2 0 0.2-0.1z"/>
								</g>
							</g>
						</g>
						<g id="&lt;Group&gt;">
							<path id="&lt;Path&gt;" class="s5" d="m107.2 142.1l37.4 34.4c0 0 46.4-43.8 59.4-67.3 13.1-23.5 2.8-25.3-24.3-11.3-27.2 14-72.5 44.2-72.5 44.2z"/>
						</g>
						<path id="&lt;Path&gt;" class="s3" d="m182.4 118.6c-1.7 3.9-3.4 7.9-4.8 11.9q0-0.4 0-0.8 0.2-3.7 0.9-7.3c0.1-0.3-0.3-0.4-0.4-0.1q-0.7 3.6-1.2 7.3-0.1 1.8-0.3 3.6 0 0.2 0 0.4 0 0.1 0 0.2c-1.6 5.4-2.6 10.9-3.9 16.3-0.1 0.3 0.3 0.4 0.4 0.1 1.3-5.3 3.3-10.5 5-15.7 1.7-5.2 3-10.5 4.6-15.8 0.1-0.2-0.2-0.3-0.3-0.1z"/>
					</g>
					<g id="&lt;Group&gt;">
						<g id="&lt;Group&gt;">
							<g id="&lt;Group&gt;">
								<g id="&lt;Group&gt;">
									<path id="&lt;Path&gt;" class="s0" d="m210.9 114c7.9 0.7 19.3-12.9 23.1-23 0.3-0.7-1.7-7.4-3.7-15.6-1.2-5-2.5-10.6-3.2-15.8-0.2-1.1-31.4 12.6-31.4 12.6 0 0 4.8 10.4 6 19.4q0.2 1.2 0.1 2.2 0 0.1 0 0.3c0 4.2 1.5 19.2 9.1 19.9z"/>
								</g>
								<path id="&lt;Path&gt;" class="s3" d="m225.1 60c-0.2 9-2.6 30.9-19.9 33.8q-1.8 0.4-3.4 0.3 0-0.2 0-0.3 0.1-1 0-2.2c-1.3-9-6.1-19.4-6.1-19.4 0 0 22.5-9.9 29.4-12.2z"/>
							</g>
							<g id="&lt;Group&gt;">
								<g id="&lt;Group&gt;">
									<path id="&lt;Path&gt;" class="s0" d="m220.9 19.3c6.7 10.2 10.2 44.2 4.4 53.7-8.5 13.8-27 20.3-40 9-12.5-10.9-16.3-55.3-9.4-64.4 10.3-13.4 35.1-13.3 45 1.7z"/>
								</g>
								<g id="&lt;Group&gt;">
									<g id="&lt;Group&gt;">
										<path id="&lt;Path&gt;" class="s3" d="m197.4 53.2c0-0.1 0.2 0.1 0.2 0.2 0.2 2.3 0.7 4.9 2.9 5.4 0.1 0 0.1 0.1 0 0.1-2.6-0.1-3.3-3.5-3.1-5.7z"/>
										<path id="&lt;Path&gt;" class="s3" d="m199.2 50.6c3.6-0.7 4.7 6.6 1.3 7.3-3.3 0.6-4.4-6.8-1.3-7.3z"/>
									</g>
									<g id="&lt;Group&gt;">
										<path id="&lt;Path&gt;" class="s3" d="m184.6 55.1c0 0-0.1 0.2-0.1 0.3 0.4 2.2 0.5 4.9-1.4 6-0.1 0-0.1 0.1 0 0.1 2.5-0.7 2.3-4.3 1.5-6.4z"/>
										<path id="&lt;Path&gt;" class="s3" d="m182.3 53.1c-3.7 0.2-2.9 7.6 0.5 7.4 3.4-0.3 2.6-7.7-0.5-7.4z"/>
									</g>
									<path id="&lt;Path&gt;" class="s3" d="m201.7 44.2c-1.1 0.1-2 0-3.1 0-1.1 0-2.1 0.1-3.1-0.6-0.5-0.4-0.7-1.4-0.3-1.9 0.7-1.3 2.2-1.6 3.6-1.7 1.5 0 2.7 0.4 3.9 1.3 1.1 1 0.4 2.8-1 2.9z"/>
									<path id="&lt;Path&gt;" class="s3" d="m178.1 48.2c1-0.3 1.8-0.8 2.8-1.2 1.1-0.5 2-0.7 2.6-1.8 0.4-0.5 0.2-1.4-0.3-1.8-1.2-1-2.7-0.7-4-0.2-1.4 0.6-2.4 1.4-3.1 2.7-0.8 1.3 0.7 2.7 2 2.3z"/>
									<path id="&lt;Path&gt;" class="s3" d="m204.3 73.8c-0.4 0.6-0.9 1.4-1.7 1.6-0.8 0.2-1.7 0-2.5-0.2-0.1 0-0.2 0.1-0.1 0.1 0.7 0.8 2.1 1.2 3.1 0.8 1-0.3 1.4-1.3 1.5-2.3 0-0.1-0.2-0.1-0.3 0z"/>
									<g id="&lt;Group&gt;">
										<g id="&lt;Group&gt;">
											<path id="&lt;Path&gt;" class="s3" d="m200.9 67.3c-1 2.2-2.7 3.5-4.6 4.2-0.9 0.3-1.9 0.5-2.8 0.6q-0.3 0-0.5 0-0.3 0-0.6 0c-0.2 0-0.4-0.2-0.5-0.5q0-0.1 0-0.2v-0.2c-0.3-1.8-0.6-4.5-0.6-4.5-0.6 0.5-3.6 2.4-3.7 1.5-0.7-7.7-1.4-16.2-0.5-23.9 0-0.3 0.4-0.3 0.4 0 1 7.3 0.6 14.7 1.5 22.1 0.9-0.5 2.5-1.5 3.5-1.6 0.2 0 0.3 5.2 0.5 5.9q0 0 0 0.1c3 0 5.1-1.3 7.7-3.7 0.1-0.1 0.3 0 0.2 0.2z"/>
										</g>
									</g>
									<g id="&lt;Group&gt;">
										<path id="&lt;Path&gt;" class="s3" d="m194.4 71c0 0 1.9 1.9 4.1 2.3 0.8 0.2 1.7 0.2 2.5-0.2 1.8-0.7 1.6-2.4 1-3.8-0.4-1.1-1.1-2.1-1.1-2.1 0 0-2.3 2.9-6.5 3.8z"/>
										<path id="&lt;Path&gt;" class="s6" d="m198.5 73.3c0.8 0.2 1.7 0.2 2.5-0.2 1.8-0.7 1.6-2.4 1-3.8-1.9 0.5-3.6 2.1-3.5 4z"/>
									</g>
								</g>
								<g id="&lt;Group&gt;">
									<path id="&lt;Path&gt;" class="s3" d="m228.3 46.8c0 0 2.7-21.7-2.7-31.1-2.4-4.2-9.8-4.5-9.8-4.5 0 0-0.6-6.2-7.7-8.7-7.5-2.6-19.7 4.2-19.7 4.2 0 0-13.6-8.3-23.2 1.7-9.6 9.9 3.9 19.8 3.9 19.8 0 0-1.5 8 11.1 8.1 12.2 0.1 31.1-13.8 31.1-13.8 0 0 3.1 11.4 9.9 21.4 2.6 3.8 7.1 2.9 7.1 2.9z"/>
									<path id="&lt;Path&gt;" class="s3" d="m186.4 7.7c2.1-2.2 4.8-3.9 7.6-5.1 2.5-1.1 5.2-2 7.9-2.2 4.9-0.4 10 1.1 12.8 5.4 1.4 2.1 1.8 4.7 1.2 7.2 0 0.1-0.2 0-0.1-0.1 1.2-4.5-2.6-9.1-6.6-10.7-4.6-1.7-10-0.8-14.4 1-2.9 1.2-5.6 2.9-8.2 4.8-0.1 0.1-0.3-0.1-0.2-0.3z"/>
									<path id="&lt;Path&gt;" class="s3" d="m159.3 17.8c-0.4-3.8 1.4-7.1 4.1-9.5 3.1-2.8 7.2-4.3 11.3-4.6 4.1-0.2 8.3 0.8 12 2.7 0.1 0 0 0.2-0.1 0.1-6.7-3.2-14.9-3.1-21 1.4-2.8 2-5.1 4.9-5.2 8.4-0.1 3.3 1.6 6.6 4.1 8.6 3 2.5 7 3.7 10.9 4.2 0.1 0 0.1 0.1 0 0.1-3.7-0.2-7.3-1-10.4-3-2.9-1.9-5.2-4.9-5.7-8.4z"/>
									<path id="&lt;Path&gt;" class="s3" d="m177.9 38c5.5-0.1 10.9-1.7 15.8-4.1 5.2-2.4 10-5.5 14.6-9q3.9-3 7.7-6.3c0.1-0.1 0.2 0 0.1 0.1-4.2 4.4-8.6 8.6-13.7 12-4.7 3.1-9.8 5.5-15.3 6.6-3 0.7-6.1 0.9-9.2 0.8-0.1 0-0.1-0.1 0-0.1z"/>
								</g>
								<g id="&lt;Group&gt;">
									<path id="&lt;Path&gt;" class="s0" d="m221.7 47.6c0 0 4.5-12.5 10-11.2 5.4 1.4 4 18.1-1 21.7-5 3.6-8.4-1-8.4-1z"/>
									<path id="&lt;Path&gt;" class="s3" d="m231.2 41.2c0 0 0.1 0.1 0 0.2-3.5 2.6-4.5 6.8-5 11 0.8-1.8 2.2-3 4.5-2.2 0.1 0.1 0.1 0.3-0.1 0.3-1.7 0.1-2.7 0.7-3.5 2.2-0.5 1.2-0.7 2.5-1 3.7-0.1 0.4-0.7 0.3-0.7-0.1q0-0.1 0-0.1c-1.5-5 0.5-13 5.8-15z"/>
								</g>
							</g>
						</g>
					</g>
					<path id="&lt;Path&gt;" class="s3" d="m238.2 93.1c-3 4.9-5.8 9.9-9.3 14.4-3.3 4.2-7.4 8.2-12.6 9.6-5 1.4-10.3 1.2-13.3-4.8-2.3-4.7-3-9.8-3.2-16.3 0-0.3-0.4-0.3-0.4 0 0.3 8.4 1.2 21.3 9.2 22.8 8.8 1.8 16.3-3.9 21.2-10.7 3.3-4.5 6.4-9.6 8.6-14.9 0-0.1-0.1-0.2-0.2-0.1z"/>
				</g>
				<g id="&lt;Group&gt;">
					<g id="&lt;Group&gt;">
						<path id="&lt;Path&gt;" class="s7" d="m251.2 287.2v6h-133.4v-6z"/>
					</g>
					<g id="&lt;Group&gt;">
						<path id="&lt;Path&gt;" class="s7" d="m217 293.2h-130.1l-10.8-88.4h130z"/>
						<path id="&lt;Path&gt;" class="s1" d="m154.4 249c0.1 4.4-3.4 7.9-7.7 7.9-4.4 0-8-3.5-8.1-7.9-0.1-4.4 3.4-7.9 7.8-7.9 4.3 0 8 3.5 8 7.9z"/>
					</g>
				</g>
				<path id="&lt;Path&gt;" class="s2" d="m20.6-425.7v5.7h86.9l-4.3-5.7z"/>
			</g>
		</g>
	</g>
</svg>