<svg version="1.2" xmlns="http://www.w3.org/2000/svg" viewBox="0 0 225 225" width="225" height="225">
	<title>nextjs-icon</title>
	<style>
		.s0 { fill: #ffffff } 
	</style>
	<path id="Layer" fill-rule="evenodd" class="s0" d="m123.6 0.6c8.5 1 16.2 2.6 23.3 4.9 40.7 13.2 70.7 48.6 76.8 90.8 0.9 6.1 1 7.9 1 16.3 0 8.4-0.1 10.2-1 16.4-3.1 21.2-12.3 41.1-26.4 57.4-6.7 7.6-15.1 15-23.1 20.2l-0.9 0.6-17.8-26.9c-9.7-14.9-29.6-45-44.2-67.1-14.6-22.1-26.7-40.5-27.1-40.8-1.1-1.3-1.9-1.5-6.3-1.5-3.8 0-4.2 0-5.1 0.5-0.5 0.3-1.3 0.9-1.6 1.3l-0.7 0.9-0.1 44v44l0.5 1q0.4 1 1.4 1.6l1 0.7h3.8c3.3 0 4-0.1 4.7-0.5 0.9-0.4 1.3-0.9 1.9-2 0.4-0.7 0.4-2 0.5-33.6 0-18.1 0.1-32.9 0.2-32.9 0.1 0 10.2 15 22.6 33.3l22.5 33.3 17.9 24.3c9.9 13.3 18.1 24.4 18.3 24.5 0.3 0.2-0.1 0.5-2 1.5-12.6 6.4-25.4 10.1-40.5 11.8-3.4 0.4-18 0.4-21.4 0-8.8-1-16.4-2.6-23.7-4.9-40.7-13.1-70.7-48.6-76.8-90.7-0.9-6.2-1-8-1-16.4 0-8.4 0.1-10.2 1-16.3 2.6-17.7 9.3-34.4 19.8-49.1 18.9-26.5 48.8-43.7 80.7-46.5 1.3-0.2 2.9-0.3 3.4-0.3 1.8-0.2 16.3 0 18.4 0.2zm22.9 67.2c-3.4 0-3.7 0.1-4.6 0.5-1.1 0.6-1.9 1.6-2.2 2.8-0.1 0.5-0.2 10.9-0.2 29.5v28.7l6.9 10.6 7 10.7 0.1-39.5c0-27.5 0-39.7-0.2-40.2-0.3-1.1-1.2-2.1-2.2-2.6-0.7-0.4-1.3-0.5-4.6-0.5z"/>
</svg>