<svg version="1.2" xmlns="http://www.w3.org/2000/svg" viewBox="0 0 225 254" width="225" height="254">
	<title>nodejs-icon</title>
	<style>
		.s0 { fill: #ffffff } 
	</style>
	<path id="Layer" fill-rule="evenodd" class="s0" d="m112.5 254c-3.5 0-6.8-0.9-9.8-2.6l-31-18.4c-4.6-2.6-2.3-3.5-0.9-4 6.3-2.1 7.5-2.5 14-6.2 0.7-0.5 1.6-0.3 2.3 0.2l23.8 14.2c0.9 0.5 2.1 0.5 2.8 0l92.9-53.9c1-0.4 1.4-1.4 1.4-2.5v-107.6c0-1.2-0.4-2.1-1.4-2.6l-92.9-53.7c-0.9-0.4-2.1-0.4-2.8 0l-93 53.7c-0.9 0.5-1.4 1.6-1.4 2.6v107.5c0 1 0.5 2.1 1.4 2.6l25.4 14.7c13.8 7 22.4-1.2 22.4-9.3v-106.2c0-1.4 1.1-2.8 2.8-2.8h11.9c1.3 0 2.8 1.2 2.8 2.8v106.2c0 18.4-10 29.2-27.5 29.2-5.4 0-9.6 0-21.4-5.9l-24.5-14q-2.2-1.3-4-3.1-1.9-1.8-3.2-4.1-1.2-2.2-1.9-4.7-0.7-2.5-0.7-5.1v-107.6c0-7 3.7-13.5 9.8-17l92.9-53.9q2.3-1.2 4.8-1.9 2.4-0.6 5-0.6 2.6 0 5.1 0.6 2.5 0.7 4.7 1.9l92.9 53.9c6.1 3.5 9.8 10 9.8 17v107.6c0 7-3.7 13.5-9.8 17l-92.9 53.9c-3 1.4-6.5 2.1-9.8 2.1zm28.6-74c-40.7 0-49.1-18.6-49.1-34.5 0-1.4 1.2-2.8 2.8-2.8h12.1c1.4 0 2.6 0.9 2.6 2.3 1.8 12.4 7.2 18.5 31.9 18.5 19.5 0 28-4.5 28-15 0-6-2.4-10.5-32.9-13.5-25.4-2.5-41.2-8.2-41.2-28.5 0-18.9 15.8-30.1 42.4-30.1 29.8 0 44.5 10.3 46.3 32.7q0 0.3 0 0.6-0.1 0.2-0.2 0.5-0.1 0.3-0.2 0.5-0.1 0.3-0.3 0.5c-0.5 0.5-1.1 0.9-1.8 0.9h-12.1q-0.5 0-0.9-0.1-0.4-0.2-0.8-0.5-0.3-0.3-0.6-0.6-0.2-0.4-0.3-0.9c-2.8-12.8-10-17-29.1-17-21.5 0-24 7.5-24 13.1 0 6.7 3 8.8 31.9 12.6 28.6 3.7 42.2 9.1 42.2 29.1-0.3 20.6-17.1 32.2-46.7 32.2z"/>
</svg>