<svg version="1.2" xmlns="http://www.w3.org/2000/svg" viewBox="0 0 257 225" width="257" height="225">
	<title>react-icon</title>
	<style>
		.s0 { fill: #ffffff } 
	</style>
	<path id="Layer" fill-rule="evenodd" class="s0" d="m257 112.3c0 15.9-21 31.4-49.9 41-1.6 0.5-3.2 1-4.8 1.5q0.9 3.5 1.5 6.8c5.8 28.9 1.3 52.7-12.2 60.5-13.1 7.6-34.3 0.1-55.8-18.4-2.3-2-4.6-4.1-6.8-6.2q-2.7 2.5-5.3 4.8c-22.2 19.5-45 27.5-58.5 19.7-13.2-7.6-17.3-29.7-12-57.6 0.6-3 1.2-6 2-9-2.3-0.7-4.6-1.4-6.9-2.2-27.8-9.5-48.3-25.2-48.3-40.9 0-15.2 19.2-29.8 46-39.1 3-1.1 6.2-2.1 9.4-3-0.7-2.8-1.3-5.6-1.9-8.4-5.5-28.3-1.6-51 11.6-58.6 13.7-8 36.5 0.6 59.4 20.9 1.4 1.2 2.8 2.5 4.2 3.8 2-1.9 4.1-3.9 6.2-5.8 21.8-18.9 43.3-26.8 56.5-19.2 13.7 7.9 17.8 32 11.6 61.9q-0.5 2.8-1.2 5.6 4.1 1.2 8.1 2.5c27.3 9.4 47.1 24.2 47.1 39.4zm-120.9-76.6c7.8 8.3 14.9 17.3 21.4 26.6 11.4 1 22.7 2.8 33.8 5.4 0.4-1.7 0.8-3.4 1.1-5.1 5.4-25.8 2.1-45.5-6.4-50.4-7.9-4.6-25.3 1.8-44 18.1-2 1.7-3.9 3.5-5.9 5.4zm-59.4 89.6c-3.2 7.6-5.9 15.1-8.1 22.3q11.5 2.5 23.3 3.8c-2.8-4.3-5.4-8.7-8-13-2.5-4.4-4.8-8.7-7.2-13.1zm0-25.5c2.3-4.4 4.7-8.7 7.2-13 2.4-4.3 5-8.6 7.7-12.8-8 1-15.7 2.3-22.9 3.9 2.2 7.1 4.9 14.5 8 21.9zm16.6 33.1q5.8 10.1 12.3 19.6 11.1 0.7 22.9 0.7c7.9 0 15.7-0.2 23.1-0.8 4.3-6.4 8.4-12.9 12.2-19.6q5.8-10.1 10.8-20.5c-3.4-6.8-7-13.6-10.9-20.2q-5.8-10-12.2-19.5c-7.4-0.5-15.2-0.8-23-0.8q-11.7 0-23 0.8c-4.4 6.4-8.5 12.9-12.3 19.6-3.8 6.6-7.4 13.4-10.7 20.4 3.3 6.9 6.9 13.7 10.8 20.3zm72 18.2c8-0.9 15.9-2.2 23.6-4-2.4-7.6-5.2-15-8.4-22.2-2.4 4.5-4.8 8.9-7.4 13.4-2.5 4.3-5 8.6-7.8 12.8zm23.1-73.1c-7.2-1.6-14.9-3-23-4q4 6.3 7.7 12.7c2.5 4.3 4.9 8.7 7.3 13.1 3-7.1 5.7-14.3 8-21.8zm-74.8-16.7c9.9-0.4 19.9-0.4 29.9 0-4.7-6.2-9.6-12.2-14.9-18-5 5.5-10.1 11.5-15 18zm-49.6-1.5c0.6 2.6 1.2 5.2 1.8 7.8q16.7-3.8 33.7-5.3c6.6-9.3 13.8-18.3 21.6-26.6-1.3-1.2-2.6-2.5-3.8-3.6-19.8-17.4-38.5-24.5-46.9-19.5-8 4.5-11.1 22.9-6.4 47.2zm6.5 52.8c-4.7-10.4-8.9-21.1-12.3-32-2.9 0.9-5.8 1.8-8.7 2.8-22.8 8-38.7 19.7-38.7 28.9 0.9 6.1 4.4 11.5 9.4 15 8.8 7 21 12.3 31.7 15.7q3 1 6.2 1.9c3.4-11 7.6-21.9 12.4-32.3zm50.9 77.1c-7.8-8.4-15-17.4-21.7-26.8-11.5-0.9-22.8-2.5-34-4.9-0.7 2.7-1.3 5.5-1.9 8.3-4.5 23.9-1.2 41.6 6.8 46.2 5.7 2.3 12.1 2.1 17.7-0.6 10.4-4.1 20-10.2 28.3-17.7q2.4-2.2 4.8-4.5zm22.4-26c-5.1 0.2-10.1 0.3-15.3 0.3-5 0-10-0.1-14.8-0.3 5 6.6 10.1 12.7 15.2 18.3 5.3-5.9 10.2-11.9 14.9-18.3zm49.5 0q-0.7-3-1.4-6.1c-11.3 2.6-22.7 4.3-34.2 5.3-6.5 9.4-13.5 18.4-21.2 26.9 2.1 2 4.2 4 6.4 5.8 18.3 15.7 35.3 21.8 43.3 17.1 4.8-3.8 7.9-9.5 8.3-15.7 1.6-11.1 1.2-22.4-1.2-33.3zm52.9-51.5c0-9.1-16.4-21.1-39.8-29.1q-3.6-1.2-7.5-2.4c-3.4 10.8-7.5 21.4-12.3 31.6 4.9 10.4 9.3 21.1 12.8 32 1.4-0.4 2.8-0.8 4.2-1.3 25.1-8.3 42.6-21 42.6-30.8zm-117.7 23.3c-12.7 0-23-10.3-23-23 0-12.7 10.3-23 23-23 12.7 0 23 10.3 23 23 0 12.7-10.3 23-23 23z"/>
</svg>