<svg version="1.2" xmlns="http://www.w3.org/2000/svg" viewBox="0 0 234 225" width="234" height="225">
	<title>redux-icon</title>
	<style>
		.s0 { fill: #ffffff } 
	</style>
	<path id="Layer" class="s0" d="m162.1 156.2c8.7-0.9 15.2-8.4 14.9-17.3-0.3-9-7.7-16.1-16.6-16.1h-0.6c-9.3 0.3-16.4 8-16.1 17.3 0.3 4.4 2.1 8.3 4.7 11-10.1 20-25.6 34.6-48.8 46.8-15.8 8.3-32.2 11.3-48.5 9.2-13.4-1.8-23.9-7.7-30.4-17.6-9.5-14.6-10.4-30.4-2.4-46.2 5.7-11.3 14.6-19.6 20.3-23.8-1.2-3.9-3-10.4-3.9-15.2-43.2 31.3-38.7 73.6-25.6 93.6 9.8 14.9 29.8 24.1 51.8 24.1 5.9 0 11.9-0.6 17.9-2.1 38.1-7.4 67-30.1 83.3-63.7zm52.4-37c-22.6-26.5-55.9-41.1-94.1-41.1h-4.7c-2.7-5.4-8.4-8.9-14.6-8.9h-0.6c-9.2 0.2-16.4 8-16.1 17.2 0.3 9 7.8 16.1 16.7 16.1h0.6c6.5-0.3 12.2-4.4 14.6-10.1h5.3c22.7 0 44.1 6.5 63.5 19.4 14.9 9.8 25.6 22.6 31.5 38.1 5.1 12.5 4.8 24.7-0.6 35.2-8.3 15.8-22.3 24.4-40.8 24.4-11.9 0-23.2-3.6-29.1-6.3-3.3 3-9.3 7.8-13.4 10.8 12.8 5.9 25.9 9.2 38.4 9.2 28.6 0 49.7-15.8 57.7-31.6 8.7-17.3 8.1-47.1-14.3-72.4zm-151.2 42c0.3 9 7.7 16.1 16.7 16.1h0.5c9.3-0.3 16.4-8 16.1-17.3-0.3-8.9-7.7-16.1-16.6-16.1h-0.6c-0.6 0-1.5 0-2.1 0.3-12.2-20.2-17.3-42.3-15.5-66.1 1.2-17.9 7.1-33.4 17.6-46.2 8.6-11 25.3-16.4 36.6-16.7 31.5-0.6 44.9 38.8 45.8 54.5 3.9 0.9 10.5 3 14.9 4.5-3.5-48.3-33.3-73.3-61.9-73.3-26.8 0-51.5 19.4-61.4 48-13.6 38.1-4.7 74.8 12 103.7-1.5 2.1-2.4 5.3-2.1 8.6z"/>
</svg>