<svg version="1.2" xmlns="http://www.w3.org/2000/svg" viewBox="0 0 225 278" width="225" height="278">
	<title>sql-icon</title>
	<style>
		.s0 { opacity: 1;fill: #ffffff } 
	</style>
	<g id="Layer">
		<path id="Layer" fill-rule="evenodd" class="s0" d="m102-0.1q10.4 0 20.8 0 28.2 1 55.4 8.8 15.9 4.7 29.7 13.8 6.8 4.9 11.8 11.6 4.1 6.1 5.2 13.2 0 91.6 0 183.2-1.5 9.6-8 16.8-9.7 10.1-22.5 15.7-20.3 8.7-42.1 12-14.7 2.2-29.5 2.9-10.4 0-20.8 0-28.2-1-55.4-8.8-15.9-4.7-29.7-13.8-7.1-5.1-12.3-12.2-3.6-5.8-4.7-12.6 0-91.6 0-183.2 1.6-9.7 8.2-17 9.6-9.9 22.3-15.5 20.3-8.7 42.1-12 14.7-2.2 29.5-2.9zm-38.2 25.4q-15.5 3.4-29.7 10.5-7.2 3.7-12.3 10.1-2.6 3.6-0.8 7.7 2.4 4 6.2 6.9 6.3 4.6 13.5 7.7 17.4 7.1 36 9.8 43.8 6.4 86.9-3.1 14.2-3.3 27.1-9.9 6.2-3.3 11.1-8.4 2.2-2.7 2.9-6.2-0.7-3.5-2.9-6.2-4.3-4.5-9.7-7.6-14.7-7.8-31.1-11.3-24.2-5.1-48.9-5.2-24.4 0.2-48.3 5.2zm-43.6 85.4q0.6 3.7 3 6.4 6.6 6.5 14.9 10.3 16.9 7.4 35.2 10.3 33.4 5.3 67.1 1.6 21.5-2.3 41.6-9.9 9.3-3.6 17-9.7 3.8-3.1 5.4-7.6 0.5-15.8 0.2-31.6-14 8.4-29.8 12.6-30.7 8.2-62.4 7.8-31.7 0.4-62.4-7.8-15.8-4.2-29.9-12.6 0 15.1 0.1 30.2zm0 60.3q0.1 1.4 0.6 2.6 2 3.8 5.4 6.6 7.4 5.8 16.4 9.3 11.1 4.4 22.8 6.9 45.9 9.2 92 0.4 17.9-3.4 34.1-11.7 6.4-3.5 11.1-9 1.2-1.7 1.8-3.7 0.5-15.8 0.2-31.6-14.8 8.8-31.5 13.1-29.8 7.7-60.7 7.4-30.9 0.3-60.7-7.4-16.8-4.3-31.6-13.1 0 15.1 0.1 30.2zm0 56.5q0.3 2.4 1.6 4.4 5.1 6.4 12.3 10.1 15 7.6 31.5 10.9 46.8 9.5 93.6 0 16.5-3.3 31.5-10.9 6.2-3.3 11.1-8.4 2.2-2.7 2.8-6.1 0.2-13.3 0-26.5-3.8 2.5-8 4.5-14.2 6.6-29.5 10.1-34.7 7.7-70.2 5.5-25-1.3-49.1-8.1-14.7-4.2-27.7-12 0 13.2 0.1 26.5z"/>
	</g>
</svg>