<svg version="1.2" xmlns="http://www.w3.org/2000/svg" viewBox="0 0 225 225" width="225" height="225">
	<title>tailwind-css-icon</title>
	<style>
		.s0 { fill: #ffffff } 
	</style>
	<path id="Layer" fill-rule="evenodd" class="s0" d="m112.5 44q-45.1 0-56.4 44.9 16.9-22.4 39.5-16.8c8.6 2.1 14.7 8.3 21.5 15.1 11 11.2 23.8 24.1 51.8 24.1q45.1 0 56.4-44.9-16.9 22.5-39.5 16.9c-8.6-2.2-14.7-8.4-21.5-15.2-11-11.2-23.8-24.1-51.8-24.1zm-56.4 67.3q-45.1 0-56.4 44.8 16.9-22.4 39.5-16.8c8.6 2.2 14.7 8.4 21.5 15.2 11 11.2 23.8 24.1 51.8 24.1q45.1 0 56.4-44.9-16.9 22.4-39.5 16.8c-8.6-2.1-14.7-8.3-21.5-15.1-11-11.2-23.8-24.1-51.8-24.1z"/>
</svg>