<svg version="1.2" xmlns="http://www.w3.org/2000/svg" viewBox="0 0 225 225" width="225" height="225">
	<title>typescript-icon</title>
	<style>
		.s0 { fill: #ffffff } 
	</style>
	<path id="Layer" fill-rule="evenodd" class="s0" d="m18.9 0q0.3 0 0.4 0c0.3 0 0.3 0 0.4 0q0.7 0 1.4 0 0.5 0 1 0 1.3 0 2.6 0 1.5 0 2.9 0 2.6 0 5.1 0 3.6 0 7.2 0 6.6 0 13.2 0 0.2 0 0.4 0 0.2 0 0.4 0 5.9 0 11.8 0 0.4 0 0.8 0 1.6 0 3.2 0 4.5 0 8.9 0c0.2 0 0.2 0 0.4 0q6.5 0 12.9 0c0.3 0 0.3 0 0.5 0q3.4 0 6.8 0 13.5 0 27 0 3.4 0 6.8 0 0.2 0 0.5 0 6.4 0 12.9 0 0.2 0 0.4 0 4.5 0 8.9 0 1.6 0 3.2 0 0.4 0 0.8 0 5.9 0 11.8 0c0.2 0 0.2 0 0.4 0 0.2 0 0.2 0 0.4 0q6.6 0 13.1 0 3.7 0 7.5 0 2.6 0 5.1 0 1.4 0 2.8 0 1.3 0 2.7 0 0.4 0 0.9 0 0.6 0 1.3 0c0.1 0 0.1 0 0.4 0 0.8 0 0.8 0 1 0.2q0.3 0.1 0.7 0.1c1.7 0.4 3.3 0.7 4.7 1.6 0.4 0.2 0.4 0.2 0.7 0.2q0 0.2 0 0.4 0.5 0 0.9 0.1 0 0.2 0 0.4 0.1 0 0.3 0.1c0.4 0.1 0.8 0.2 1.1 0.4q0 0.2 0 0.4 0.2 0 0.3 0.1c0.4 0 0.4 0 0.9 0.4q0 0.2 0 0.3 0.2 0.1 0.3 0.2c0.4 0.2 0.8 0.4 1.1 0.7q0 0.2 0 0.4c0.2 0.1 0.2 0.1 0.4 0.1 0.3 0.2 0.3 0.2 0.5 0.8q0.2 0 0.4 0c0.9 0.9 0.9 0.9 0.9 1.4q0.1 0 0.3 0c0.5 0.8 0.5 0.8 0.5 1.2q0.2 0 0.4 0c0.3 0.5 0.5 0.8 0.5 1.4q0.2 0 0.4 0c2.2 4.6 2.2 4.6 2.4 7q0.1 0.1 0.2 0.2 0 0.6 0 1.2 0 0.3 0 0.4 0 0.7 0 1.4 0 0.5 0 1 0 1.3 0 2.6 0 1.5 0 2.9 0 2.6 0 5.1 0 3.6 0 7.2 0 6.6 0 13.2 0 0.2 0 0.4 0 0.2 0 0.4 0 5.9 0 11.8 0 0.4 0 0.8 0 1.6 0 3.2 0 4.5 0 8.9 0 0.2 0 0.4 0 6.5 0 13 0 0.2 0 0.4 0 3.4 0 6.8 0 13.5 0 27 0 3.4 0 6.9c0 0.1 0 0.1 0 0.4q0 6.4 0 12.9c0 0.2 0 0.2 0 0.4q0 4.5 0 8.9 0 1.6 0 3.2 0 0.4 0 0.8 0 5.9 0 11.8c0 0.2 0 0.2 0 0.4q0 0.2 0 0.4 0 6.6 0 13.1 0 3.7 0 7.5 0 2.6 0 5.1 0 1.4 0 2.8 0 1.3 0 2.7 0 0.4 0 0.9 0 0.6 0 1.3 0 0.1 0 0.4c0 0.8 0 0.8-0.2 1q-0.1 0.3-0.1 0.7c-0.4 2.3-1.3 4.2-2.3 6.3q-0.2 0-0.4 0 0 0.1-0.1 0.3c-0.1 0.4-0.2 0.8-0.4 1.1q-0.2 0-0.4 0c-0.1 0.2-0.1 0.2-0.1 0.4-0.2 0.5-0.2 0.5-0.4 0.8q-0.2 0-0.3 0c-0.1 0.2-0.1 0.2-0.2 0.3-0.2 0.4-0.4 0.8-0.7 1.1q-0.2 0-0.4 0c-0.1 0.2-0.1 0.2-0.1 0.4-0.2 0.3-0.2 0.3-0.8 0.5q0 0.2 0 0.4c-0.9 0.9-0.9 0.9-1.4 0.9q0 0.1 0 0.3c-0.4 0.4-0.6 0.5-1.2 0.5q0 0.2 0 0.4c-0.5 0.3-0.8 0.5-1.4 0.5q0 0.2 0 0.4-0.4 0.1-0.9 0.1 0 0.2 0 0.4-0.6 0.3-1.3 0.5-0.4 0.2-0.9 0.4c-1.1 0.4-2.1 0.8-3.3 0.9-0.6 0-0.6 0-0.8 0.3q-0.6 0-1.2 0-0.3 0-0.4 0-0.7 0-1.4 0-0.5 0-1 0-1.3 0-2.6 0-1.5 0-2.9 0-2.6 0-5.1 0-3.6 0-7.2 0-6.6 0-13.2 0-0.2 0-0.4 0-0.2 0-0.4 0-5.9 0-11.8 0-0.4 0-0.8 0-1.6 0-3.2 0-4.5 0-8.9 0-0.2 0-0.4 0-6.5 0-13 0c-0.2 0-0.2 0-0.4 0q-3.4 0-6.8 0-13.5 0-27 0-3.4 0-6.9 0-0.1 0-0.4 0-6.4 0-12.9 0-0.2 0-0.4 0-4.5 0-8.9 0-1.6 0-3.2 0-0.4 0-0.8 0-5.9 0-11.8 0c-0.2 0-0.2 0-0.4 0-0.2 0-0.2 0-0.4 0q-6.6 0-13.1 0-3.8 0-7.5 0-2.6 0-5.1 0-1.4 0-2.8 0-1.3 0-2.7 0-0.4 0-0.9 0-0.6 0-1.3 0-0.1 0-0.4 0c-0.8 0-0.8 0-1-0.2q-0.3 0-0.6 0c-0.8-0.2-1.6-0.4-2.4-0.7-0.2-0.1-0.2-0.1-0.5-0.2-1.2-0.4-2.4-0.9-3.5-1.5q0-0.2 0-0.4-0.1 0-0.3 0-0.6-0.2-1.1-0.5 0-0.2 0-0.4-0.2 0-0.4-0.1c-0.5-0.3-1-0.5-1.4-0.9q-0.3-0.2-0.5-0.4-0.2-0.1-0.3-0.3 0-0.2 0-0.4c-0.2-0.1-0.2-0.1-0.4-0.1-0.3-0.2-0.3-0.2-0.5-0.8q-0.2 0-0.4 0c-0.9-0.9-0.9-0.9-0.9-1.4q-0.1 0-0.3 0c-0.5-0.8-0.5-0.8-0.5-1.2q-0.2 0-0.4 0c-0.3-0.5-0.5-0.8-0.5-1.4q-0.2 0-0.4 0c-1.1-2.2-1.9-4.3-2.3-6.7-0.1-0.3-0.1-0.3-0.3-0.5q0-0.6 0-1.2 0-0.2 0-0.4 0-0.7 0-1.4 0-0.5 0-1 0-1.3 0-2.6 0-1.5 0-2.9 0-2.6 0-5.1 0-3.6 0-7.2 0-6.6 0-13.2 0-0.2 0-0.4 0-0.2 0-0.4 0-5.9 0-11.8 0-0.4 0-0.8 0-1.6 0-3.2 0-4.5 0-8.9 0-0.2 0-0.4 0-6.5 0-12.9c0-0.3 0-0.3 0-0.5q0-3.4 0-6.8 0-13.5 0-27 0-3.4 0-6.8 0-0.2 0-0.5 0-6.4 0-12.9 0-0.2 0-0.4 0-4.5 0-8.9 0-1.6 0-3.2 0-0.4 0-0.8 0-5.9 0-11.8 0-0.2 0-0.4 0-0.2 0-0.4 0-6.6 0-13.1 0-3.7 0-7.5 0-2.6 0-5.1 0-1.4 0-2.8 0-1.3 0-2.7 0-0.4 0-0.9 0-0.6 0-1.3 0-0.1 0-0.4c0-0.8 0-0.8 0.2-1q0.1-0.3 0.1-0.7c0.5-2.3 1.2-4.2 2.3-6.3q0.2 0 0.4 0 0-0.1 0-0.3 0.2-0.6 0.5-1.1 0.2 0 0.4 0c0.1-0.2 0.1-0.2 0.1-0.4 0.2-0.5 0.2-0.5 0.4-0.8q0.2 0 0.3 0 0.1-0.2 0.2-0.3c0.2-0.4 0.4-0.8 0.7-1.1q0.2 0 0.4 0 0.1-0.2 0.1-0.4c0.2-0.3 0.2-0.3 0.8-0.5q0-0.2 0-0.4 0.5-0.5 1.1-0.9 0.1-0.1 0.3-0.2c0.8-0.6 0.8-0.6 1.2-0.6q0-0.2 0-0.4c0.5-0.3 0.8-0.5 1.4-0.5q0-0.2 0-0.4c3-1.5 3-1.5 4.4-1.9q0.3-0.1 0.6-0.2 0.7-0.2 1.4-0.2c0.6-0.1 1-0.3 1.6-0.3zm153.5 104.9q-0.7 0.1-1.4 0.1c-1 0.1-1.9 0.2-2.8 0.4q-0.6 0.1-1.2 0.2c-0.9 0-1.7 0.2-2.6 0.4q-0.7 0.2-1.5 0.3-1 0.2-2 0.6c-0.5 0.2-1.1 0.3-1.6 0.5-0.9 0.2-1.6 0.5-2.3 0.9-0.4 0.2-0.8 0.3-1.3 0.5-1.3 0.5-2.6 1.2-3.8 2-0.4 0.3-0.4 0.3-0.9 0.6-0.8 0.4-1.4 0.9-2 1.4q-0.1 0.1-0.3 0.2-0.3 0.2-0.6 0.5-0.4 0.3-0.8 0.6c-0.2 0.2-0.2 0.2-0.3 0.3q0 0.2 0 0.4-0.3 0.1-0.6 0.2 0 0.1 0 0.3-0.1 0-0.3 0 0 0.2 0 0.4-0.3 0.1-0.6 0.1 0 0.2 0 0.4-0.1 0-0.3 0c-1.3 1.4-1.3 1.4-1.9 3q-0.2 0-0.4 0c-1.3 2.2-2.3 4.5-3 7q-0.2 0.5-0.3 1.1c-0.2 0.5-0.2 0.9-0.3 1.5 0 0.5-0.1 0.9-0.3 1.5q0 0.7 0 1.3 0 0.2 0 0.5 0 0.4 0 0.8 0 0.6 0 1.3c0 6.3 2.2 12.6 6.5 17.3 0.4 0.4 0.4 0.4 0.8 0.9q0.1 0.2 0.3 0.4 0.2 0 0.4 0c0 0.1 0 0.1 0.1 0.3 0.2 0.4 0.5 0.7 0.9 1 0.2 0.2 0.2 0.2 0.4 0.3 0.3 0.3 0.3 0.3 0.7 0.3q0 0.2 0 0.3c0.3 0.3 0.3 0.3 0.6 0.5q0.2 0.2 0.5 0.3 0.2 0.2 0.4 0.3 0.5 0.3 1 0.7c0.2 0.1 0.2 0.1 0.4 0.3q0.7 0.4 1.4 0.9c0.7 0.6 1.5 0.9 2.3 1.3q0.8 0.4 1.7 0.9c1 0.6 2.1 1.1 3.2 1.5q0.8 0.3 1.6 0.7c0.7 0.3 1.3 0.6 2.1 0.9 0.9 0.3 1.8 0.7 2.6 1.1 1.1 0.5 2.1 1 3.3 1.2q0 0.2 0 0.3 0.1 0.1 0.3 0.2 1.1 0.4 2.1 0.9c0.5 0.4 0.5 0.4 1.1 0.3q0 0.2 0 0.4 0.4 0.1 0.9 0.2 0 0.1 0 0.3 0.1 0.1 0.3 0.2c3.4 1.8 6.7 4.4 8.1 8.2 0.6 2.2 0.3 4.3-0.7 6.4q-0.2 0.4-0.4 0.9-0.1 0-0.3 0-0.2 0.2-0.4 0.5c-0.6 0.9-1.6 1.8-2.6 2.1q0 0.2 0 0.4-0.1 0-0.3 0c-0.5 0.1-0.5 0.1-0.9 0.4-2.7 1.3-5.9 1.7-8.8 1.8-0.2 0-0.2 0-0.4 0q-2.3 0.1-4.6 0-0.2 0-0.4 0c-1-0.1-1.8-0.2-2.7-0.4q-0.6-0.1-1.2-0.1c-1-0.1-1.8-0.4-2.8-0.7q-0.8-0.3-1.7-0.4c-1.3-0.4-2.6-0.7-3.8-1.3q-0.6-0.3-1.2-0.5c-3.4-1.2-6.5-3.3-9.2-5.5-0.4-0.3-0.8-0.5-1.2-0.7q0 4.1 0 8.3 0 1.9 0 3.8 0 1.7 0 3.4 0 0.9 0 1.8 0 1 0 2 0 0.2 0 0.5 0 0.3 0 0.6 0 0.2 0 0.4c0 0.4 0 0.4 0.2 0.8 0.3 0.2 0.3 0.2 0.6 0.3q0.2 0.1 0.4 0.2 0.2 0.1 0.5 0.2 0.2 0.1 0.4 0.2c0.8 0.4 1.7 0.7 2.6 0.9 0.4 0.1 0.9 0.3 1.4 0.5 1.6 0.6 3.3 1 5 1.3q0.2 0.1 0.5 0.1 0.2 0 0.3 0.1c0.4 0.1 0.4 0.1 0.8 0.2q0.4 0.1 0.8 0.1 1.8 0.2 3.6 0.6c1.3 0.2 2.5 0.3 3.8 0.3q0.2 0 0.5 0 0.1 0 0.3 0c0.4 0.1 0.4 0.1 0.9 0.2 0.9 0.1 1.7 0.1 2.6 0.1q0.3 0 0.6 0 0.6 0 1.3 0 0.9 0 1.9 0 0.5 0 1.1 0 0.3 0 0.6 0c0.8 0 1.7 0 2.5-0.2q0.4-0.1 0.7-0.1c3.5-0.1 7-0.6 10.3-1.5q0.6-0.2 1.2-0.3c4.2-0.9 8.8-3.1 12.1-5.8q0-0.2 0-0.4c0.1-0.1 0.1-0.1 0.3-0.1 0.7-0.4 1.2-0.9 1.8-1.5q0.1-0.1 0.3-0.2c3.4-3.3 5.4-7.6 6.4-12.1 0.1-0.7 0.1-0.7 0.3-1 0.6-4 1-9-0.3-12.9q-0.1-0.3-0.1-0.5c-0.5-2.9-2-5.7-3.6-8.1q-0.2 0-0.4 0c-0.1-0.2-0.1-0.2-0.2-0.4-0.1-0.5-0.1-0.5-0.3-0.8q-0.2 0-0.4 0 0-0.1-0.1-0.3c-0.3-0.5-0.6-0.9-0.9-1.2-0.2-0.3-0.2-0.3-0.4-0.5-0.3-0.3-0.3-0.3-0.7-0.3q0-0.1-0.1-0.3c-0.3-0.5-0.6-0.8-1-1.1q-0.2-0.2-0.4-0.4c-0.4-0.4-0.4-0.4-0.8-0.3q0-0.2 0-0.4c-0.2-0.2-0.2-0.2-0.6-0.4q-0.1-0.1-0.3-0.3-0.2-0.1-0.5-0.3-0.1-0.1-0.4-0.3-0.6-0.4-1.1-0.8-0.3-0.1-0.5-0.3c-1-0.7-2-1.2-3.1-1.8q-0.3-0.2-0.6-0.3c-1.8-1-3.6-1.8-5.5-2.7q-0.8-0.3-1.5-0.7c-1-0.5-2-0.8-3-1.3q-1.8-0.7-3.5-1.6c-0.7-0.4-1.5-0.7-2.3-1-0.6-0.3-1.1-0.6-1.7-1q-0.4-0.2-0.8-0.3c-1-0.5-1.9-1.1-2.8-1.7-0.4-0.3-0.4-0.3-0.8-0.3q0-0.2 0-0.3-0.2 0-0.5 0 0-0.2 0-0.4c-0.3-0.2-0.3-0.2-0.7-0.5-2-1.5-3.3-3.4-3.9-5.8-0.2-2.4 0.1-4.4 1.6-6.4q0.3-0.4 0.7-0.8 0.2-0.2 0.4-0.4c3.2-3.1 8.3-3.9 12.6-4q0.3 0 0.7 0 5.6-0.1 11 1.3c0.5 0.1 0.5 0.1 1.1 0.2 0.7 0.1 1.2 0.3 1.9 0.6q0.8 0.3 1.6 0.5c2.2 0.7 4.3 1.7 6.3 2.9 0.6 0.4 1.3 0.7 1.9 1 0-6.6 0-13.2 0-20-1.5-0.7-1.5-0.7-3-1.1-0.3-0.1-0.3-0.1-0.6-0.2q-0.3-0.1-0.6-0.1-0.3-0.1-0.6-0.2-0.4-0.1-0.9-0.2-0.5-0.2-0.9-0.3c-1.6-0.4-3.1-0.6-4.6-0.8q-1-0.1-2-0.3c-0.9-0.2-1.9-0.3-3-0.3q-0.1 0-0.3 0-0.2 0-0.4 0c-0.4-0.1-0.4-0.1-0.8-0.1-0.6-0.1-1.1-0.1-1.7-0.2q-0.3 0-0.6 0c-0.3 0-0.3 0-0.6 0q-0.4 0-0.7 0-0.7 0-1.5 0-0.9 0-1.8 0-0.9 0-1.8 0-0.3 0-0.6 0c-0.3 0-0.3 0-0.6 0-0.3 0-0.3 0-0.6 0.1-0.5 0-0.9 0.1-1.4 0.1zm-120.4 2c0 5.8 0 11.7 0 17.7 2.1 0 4 0 6.1 0.1q1.9 0 3.8 0 3 0 6 0 2.2 0 4.4 0.1 1.2 0 2.4 0 1 0 2.1 0 0.4 0 0.9 0 0.5 0 1.1 0c0.3 0 0.3 0 0.6 0 0.4 0 0.4 0 0.6 0.2q0 0.6 0 1.3 0 0.2 0 0.4 0 0.7 0 1.4 0 0.4 0 0.9 0 1.4 0 2.8 0 1.4 0 2.9 0 2.6 0 5.1 0 3.7 0 7.5 0.1 5.9 0.1 12 0 5.8 0 11.6 0 0.2 0 0.4 0 1.8 0 3.6 0 15.1 0.1 30.2 4.2 0 8.5 0 2 0 3.9 0 1.8 0 3.5 0 0.9 0 1.8 0 1 0 2 0 0.3 0 0.6 0.1 0.3-0.1 0.6-0.1 0.2 0 0.5 0.1c0.4 0 0.4 0 0.5-0.2q0.1-0.7 0.1-1.3 0-0.2 0-0.4 0-0.7 0-1.4 0-0.5 0-1 0-1.3 0-2.7 0-1.5 0-3 0-2.5 0-5 0-3.7 0-7.4 0-6 0-12 0-0.2 0-0.4 0-2.7 0-5.4 0-2.9 0-5.8 0-0.2 0-0.4 0-6.1 0.1-12.3 0-3.7 0-7.4 0-2.5 0-5 0-1.5 0-2.9 0-1.3 0-2.7 0-0.4 0-0.9 0-0.7 0-1.3 0-0.2 0-0.4c0-0.9 0-0.9 0.2-1.1q0.5 0 1.1 0 0.1 0 0.3 0 0.6 0 1.2 0 0.4 0 0.8 0 1.1 0 2.2 0 1.2 0 2.4-0.1 2.2 0 4.5 0 2.9 0 5.9 0 4.8 0 9.5-0.1c0-5.8 0-11.7 0-17.7-25.9 0-51.7 0-78.4 0z"/>
</svg>