<svg version="1.2" xmlns="http://www.w3.org/2000/svg" viewBox="0 0 800 800" width="800" height="800">
	<title>favicon</title>
	<style>
		.s0 { fill: #161616 } 
		.s1 { fill: #00ccff } 
	</style>
	<path id="background" class="s0" d="m0 0h800v800h-800z"/>
	<path id="code" fill-rule="evenodd" class="s1" d="m733.6 389.4l-135.8-109.8c-8.9-8.7-23.4-8.7-32.3 0-9 8.7-9 22.8 0 31.5l117.6 95.2-117.6 95.1c-9 8.7-9 22.8 0 31.5 8.9 8.7 23.4 8.7 32.3 0l135.8-109.8c4.7-4.6 6.8-10.8 6.4-16.8 0.4-6.1-1.7-12.3-6.4-16.9zm-499.1 112l-117.6-95.1 117.6-95.2c9-8.7 9-22.8 0-31.5-8.9-8.7-23.4-8.7-32.3 0l-135.8 109.8c-4.7 4.6-6.8 10.8-6.4 16.9-0.4 6 1.7 12.2 6.4 16.8l135.8 109.8c8.9 8.7 23.4 8.7 32.3 0 9-8.7 9-22.8 0-31.5zm323.3-393.3c-10.9-6.1-24.7-2.5-31 8.1l-283.3 546c-6.3 10.6-3.7 26.9 8.3 30.4 14.6 4.2 24.7 2.5 30.9-8.2l283.4-546c6.2-10.6 2.5-24.1-8.3-30.3z"/>
</svg>